<?xml version="1.0" encoding="UTF-8"?>
<svg width="276px" height="130px" viewBox="0 0 276 130" version="1.1" xmlns="http://www.w3.org/2000/svg" xmlns:xlink="http://www.w3.org/1999/xlink">
    <title>bookmarked-preview</title>
    <defs>
        <rect id="path-1" x="0" y="0" width="196" height="50" rx="25"></rect>
        <filter x="-32.4%" y="-113.0%" width="164.8%" height="354.0%" filterUnits="objectBoundingBox" id="filter-2">
            <feOffset dx="0" dy="7" in="SourceAlpha" result="shadowOffsetOuter1"></feOffset>
            <feGaussianBlur stdDeviation="20" in="shadowOffsetOuter1" result="shadowBlurOuter1"></feGaussianBlur>
            <feColorMatrix values="0 0 0 0 0.118101482   0 0 0 0 0.118751665   0 0 0 0 0.127745697  0 0 0 0.16 0" type="matrix" in="shadowBlurOuter1"></feColorMatrix>
        </filter>
    </defs>
    <g id="Page-1" stroke="none" stroke-width="1" fill="none" fill-rule="evenodd">
        <g id="Artboard-Copy" transform="translate(-651.000000, -614.000000)">
            <g id="Group-2" transform="translate(138.000000, 472.000000)">
                <g id="bookmarked-preview" transform="translate(553.000000, 175.000000)">
                    <g id="Background">
                        <use fill="black" fill-opacity="1" filter="url(#filter-2)" xlink:href="#path-1"></use>
                        <use fill="#FFFFFF" fill-rule="evenodd" xlink:href="#path-1"></use>
                    </g>
                    <path d="M34.5139512,76 L36.2971543,69.8823242 L36.3616074,69.8823242 L38.1448105,76 L39.0578965,76 L41.1687363,68.2495117 L40.1589707,68.2495117 L38.6174668,74.5498047 L38.5530137,74.5498047 L36.8181504,68.2495117 L35.8406113,68.2495117 L34.105748,74.5498047 L34.0412949,74.5498047 L32.499791,68.2495117 L31.4900254,68.2495117 L33.6008652,76 L34.5139512,76 Z M42.7416504,69.0927734 C43.0961426,69.0927734 43.3861816,68.8027344 43.3861816,68.4482422 C43.3861816,68.09375 43.0961426,67.8037109 42.7416504,67.8037109 C42.3871582,67.8037109 42.0971191,68.09375 42.0971191,68.4482422 C42.0971191,68.8027344 42.3871582,69.0927734 42.7416504,69.0927734 Z M43.2035645,76 L43.2035645,70.2099609 L42.2797363,70.2099609 L42.2797363,76 L43.2035645,76 Z M46.7584121,76.0429688 C46.9410293,76.0429688 47.1182754,76.0214844 47.3008926,75.9892578 L47.3008926,75.2104492 C47.1290176,75.2265625 47.037709,75.2319336 46.8712051,75.2319336 C46.2696426,75.2319336 46.0118301,74.9418945 46.0118301,74.2597656 L46.0118301,70.9833984 L47.3008926,70.9833984 L47.3008926,70.2099609 L46.0118301,70.2099609 L46.0118301,68.7114258 L45.088002,68.7114258 L45.088002,70.2099609 L44.1534316,70.2099609 L44.1534316,70.9833984 L45.088002,70.9833984 L45.088002,74.4960938 C45.088002,75.6025391 45.5660293,76.0429688 46.7584121,76.0429688 Z M49.410916,76 L49.410916,72.5732422 C49.410916,71.5957031 49.980252,70.9404297 51.016873,70.9404297 C51.8923613,70.9404297 52.3542754,71.4506836 52.3542754,72.4765625 L52.3542754,76 L53.2781035,76 L53.2781035,72.2509766 C53.2781035,70.8920898 52.504666,70.1079102 51.2800566,70.1079102 C50.3938262,70.1079102 49.7868926,70.4838867 49.4968535,71.1230469 L49.410916,71.1230469 L49.410916,67.9111328 L48.4870879,67.9111328 L48.4870879,76 L49.410916,76 Z M57.0800215,76.1020508 C58.7289473,76.1020508 59.7494551,74.9633789 59.7494551,73.1049805 C59.7494551,71.2412109 58.7289473,70.1079102 57.0800215,70.1079102 C55.4310957,70.1079102 54.4105879,71.2412109 54.4105879,73.1049805 C54.4105879,74.9633789 55.4310957,76.1020508 57.0800215,76.1020508 Z M57.0800215,75.2695312 C55.9843184,75.2695312 55.3666426,74.4746094 55.3666426,73.1049805 C55.3666426,71.7299805 55.9843184,70.9404297 57.0800215,70.9404297 C58.1757246,70.9404297 58.7934004,71.7299805 58.7934004,73.1049805 C58.7934004,74.4746094 58.1757246,75.2695312 57.0800215,75.2695312 Z M62.858502,76.1020508 C63.7447324,76.1020508 64.3624082,75.7368164 64.6524473,75.0922852 L64.7383848,75.0922852 L64.7383848,76 L65.6192441,76 L65.6192441,70.2099609 L64.695416,70.2099609 L64.695416,73.6367188 C64.695416,74.6518555 64.1368223,75.2587891 63.1163145,75.2587891 C62.1924863,75.2587891 61.8057676,74.7753906 61.8057676,73.7333984 L61.8057676,70.2099609 L60.8819395,70.2099609 L60.8819395,73.9589844 C60.8819395,75.3286133 61.5586973,76.1020508 62.858502,76.1020508 Z M69.1526074,76.0429688 C69.3352246,76.0429688 69.5124707,76.0214844 69.6950879,75.9892578 L69.6950879,75.2104492 C69.5232129,75.2265625 69.4319043,75.2319336 69.2654004,75.2319336 C68.6638379,75.2319336 68.4060254,74.9418945 68.4060254,74.2597656 L68.4060254,70.9833984 L69.6950879,70.9833984 L69.6950879,70.2099609 L68.4060254,70.2099609 L68.4060254,68.7114258 L67.4821973,68.7114258 L67.4821973,70.2099609 L66.547627,70.2099609 L66.547627,70.9833984 L67.4821973,70.9833984 L67.4821973,74.4960938 C67.4821973,75.6025391 67.9602246,76.0429688 69.1526074,76.0429688 Z M74.5918926,76 L74.5918926,72.4121094 C74.5918926,71.5957031 75.1773418,70.9404297 75.934666,70.9404297 C76.6651348,70.9404297 77.1431621,71.3808594 77.1431621,72.0683594 L77.1431621,76 L78.0669902,76 L78.0669902,72.277832 C78.0669902,71.5419922 78.6040996,70.9404297 79.4097637,70.9404297 C80.2261699,70.9404297 80.629002,71.359375 80.629002,72.2133789 L80.629002,76 L81.5528301,76 L81.5528301,71.9985352 C81.5528301,70.784668 80.8921855,70.1079102 79.7105449,70.1079102 C78.910252,70.1079102 78.2496074,70.5107422 77.938084,71.1230469 L77.8521465,71.1230469 C77.5835918,70.5214844 77.0357402,70.1079102 76.2515605,70.1079102 C75.478123,70.1079102 74.8980449,70.4785156 74.6348613,71.1230469 L74.5489238,71.1230469 L74.5489238,70.2099609 L73.6680645,70.2099609 L73.6680645,76 L74.5918926,76 Z M85.295666,76.1020508 C86.5632441,76.1020508 87.4655879,75.4897461 87.7341426,74.5014648 L86.8103145,74.5014648 C86.5686152,75.0117188 86.0637324,75.2856445 85.3171504,75.2856445 C84.3342402,75.2856445 83.6950801,74.5605469 83.6467402,73.4165039 L83.6467402,73.3735352 L87.8093379,73.3735352 L87.8093379,73.019043 C87.8093379,71.2197266 86.8586543,70.1079102 85.295666,70.1079102 C83.7058223,70.1079102 82.6853145,71.2895508 82.6853145,73.1103516 C82.6853145,74.9418945 83.689709,76.1020508 85.295666,76.1020508 Z M86.8371699,72.6269531 L83.6467402,72.6269531 C83.7165645,71.6010742 84.3610957,70.9243164 85.2849238,70.9243164 C86.2033809,70.9243164 86.8156855,71.6010742 86.8371699,72.6269531 Z M90.9828379,76.1020508 C92.2987559,76.1020508 93.3031504,75.3876953 93.3031504,74.3510742 C93.3031504,73.5185547 92.7767832,73.0458984 91.6864512,72.7827148 L90.7948496,72.5678711 C90.1127207,72.4013672 89.7904551,72.1542969 89.7904551,71.7568359 C89.7904551,71.2412109 90.3275645,70.8920898 91.0150645,70.8920898 C91.7133066,70.8920898 92.1644785,71.1982422 92.2880137,71.6601562 L93.2010996,71.6601562 C93.0775645,70.7094727 92.2343027,70.1079102 91.0204355,70.1079102 C89.7904551,70.1079102 88.8612559,70.8330078 88.8612559,71.7944336 C88.8612559,72.6323242 89.3553965,73.0996094 90.4403574,73.362793 L91.4340098,73.6044922 C92.0516855,73.7548828 92.3524668,74.0234375 92.3524668,74.4208984 C92.3524668,74.9526367 91.793873,75.3232422 91.0150645,75.3232422 C90.2738535,75.3232422 89.8119395,75.0117188 89.6561777,74.5229492 L88.7054941,74.5229492 C88.8075449,75.484375 89.6937754,76.1020508 90.9828379,76.1020508 Z M96.3692285,76.1020508 C97.6851465,76.1020508 98.689541,75.3876953 98.689541,74.3510742 C98.689541,73.5185547 98.1631738,73.0458984 97.0728418,72.7827148 L96.1812402,72.5678711 C95.4991113,72.4013672 95.1768457,72.1542969 95.1768457,71.7568359 C95.1768457,71.2412109 95.7139551,70.8920898 96.4014551,70.8920898 C97.0996973,70.8920898 97.5508691,71.1982422 97.6744043,71.6601562 L98.5874902,71.6601562 C98.4639551,70.7094727 97.6206934,70.1079102 96.4068262,70.1079102 C95.1768457,70.1079102 94.2476465,70.8330078 94.2476465,71.7944336 C94.2476465,72.6323242 94.7417871,73.0996094 95.826748,73.362793 L96.8204004,73.6044922 C97.4380762,73.7548828 97.7388574,74.0234375 97.7388574,74.4208984 C97.7388574,74.9526367 97.1802637,75.3232422 96.4014551,75.3232422 C95.6602441,75.3232422 95.1983301,75.0117188 95.0425684,74.5229492 L94.0918848,74.5229492 C94.1939355,75.484375 95.080166,76.1020508 96.3692285,76.1020508 Z M101.487064,76.1020508 C102.260502,76.1020508 102.894291,75.7636719 103.270268,75.1459961 L103.356205,75.1459961 L103.356205,76 L104.237064,76 L104.237064,72.0361328 C104.237064,70.8330078 103.447514,70.1079102 102.034916,70.1079102 C100.799564,70.1079102 99.8864785,70.7202148 99.7629434,71.6494141 L100.697514,71.6494141 C100.82642,71.1928711 101.309818,70.9296875 102.002689,70.9296875 C102.867436,70.9296875 103.313236,71.3217773 103.313236,72.0361328 L103.313236,72.5625 L101.642826,72.6645508 C100.294682,72.7451172 99.5319863,73.3413086 99.5319863,74.3779297 C99.5319863,75.4360352 100.364506,76.1020508 101.487064,76.1020508 Z M101.658939,75.2910156 C100.987553,75.2910156 100.488041,74.9472656 100.488041,74.3564453 C100.488041,73.7763672 100.87476,73.4702148 101.755619,73.4111328 L103.313236,73.309082 L103.313236,73.8408203 C103.313236,74.6679688 102.609623,75.2910156 101.658939,75.2910156 Z M108.065838,78.2236328 C109.644939,78.2236328 110.643963,77.3964844 110.643963,76.1020508 L110.643963,70.2099609 L109.763104,70.2099609 L109.763104,71.128418 L109.677166,71.128418 C109.344158,70.5053711 108.629803,70.1079102 107.818768,70.1079102 C106.330975,70.1079102 105.391033,71.2841797 105.391033,73.019043 C105.391033,74.7539062 106.320232,75.9140625 107.818768,75.9140625 C108.613689,75.9140625 109.268963,75.5541992 109.634197,74.9150391 L109.720135,74.9150391 L109.720135,76.0537109 C109.720135,76.9077148 109.102459,77.4179688 108.065838,77.4179688 C107.233318,77.4179688 106.717693,77.1118164 106.615643,76.6391602 L105.638104,76.6391602 C105.777752,77.5952148 106.669354,78.2236328 108.065838,78.2236328 Z M108.022869,75.0976562 C106.94865,75.0976562 106.347088,74.28125 106.347088,73.019043 C106.347088,71.7568359 106.94865,70.9404297 108.022869,70.9404297 C109.091717,70.9404297 109.741619,71.7568359 109.741619,73.019043 C109.741619,74.28125 109.097088,75.0976562 108.022869,75.0976562 Z M114.44051,76.1020508 C115.708088,76.1020508 116.610432,75.4897461 116.878986,74.5014648 L115.955158,74.5014648 C115.713459,75.0117188 115.208576,75.2856445 114.461994,75.2856445 C113.479084,75.2856445 112.839924,74.5605469 112.791584,73.4165039 L112.791584,73.3735352 L116.954182,73.3735352 L116.954182,73.019043 C116.954182,71.2197266 116.003498,70.1079102 114.44051,70.1079102 C112.850666,70.1079102 111.830158,71.2895508 111.830158,73.1103516 C111.830158,74.9418945 112.834553,76.1020508 114.44051,76.1020508 Z M115.982014,72.6269531 L112.791584,72.6269531 C112.861408,71.6010742 113.505939,70.9243164 114.429768,70.9243164 C115.348225,70.9243164 115.960529,71.6010742 115.982014,72.6269531 Z M118.725826,77.9711914 L119.569088,74.9150391 L118.543209,74.9150391 L118.032955,77.9711914 L118.725826,77.9711914 Z M126.361889,76.1020508 C128.010814,76.1020508 129.031322,74.9633789 129.031322,73.1049805 C129.031322,71.2412109 128.010814,70.1079102 126.361889,70.1079102 C124.712963,70.1079102 123.692455,71.2412109 123.692455,73.1049805 C123.692455,74.9633789 124.712963,76.1020508 126.361889,76.1020508 Z M126.361889,75.2695312 C125.266186,75.2695312 124.64851,74.4746094 124.64851,73.1049805 C124.64851,71.7299805 125.266186,70.9404297 126.361889,70.9404297 C127.457592,70.9404297 128.075268,71.7299805 128.075268,73.1049805 C128.075268,74.4746094 127.457592,75.2695312 126.361889,75.2695312 Z M131.141346,76 L131.141346,72.5732422 C131.141346,71.5581055 131.737537,70.9404297 132.661365,70.9404297 C133.585193,70.9404297 134.025623,71.4345703 134.025623,72.4765625 L134.025623,76 L134.949451,76 L134.949451,72.2509766 C134.949451,70.8759766 134.224354,70.1079102 132.924549,70.1079102 C132.038318,70.1079102 131.474354,70.4838867 131.184314,71.1230469 L131.098377,71.1230469 L131.098377,70.2099609 L130.217518,70.2099609 L130.217518,76 L131.141346,76 Z M137.349514,76 L137.349514,67.9111328 L136.425686,67.9111328 L136.425686,76 L137.349514,76 Z M139.3736,78.0947266 C140.399479,78.0947266 140.861393,77.6972656 141.355533,76.3544922 L143.616764,70.2099609 L142.633854,70.2099609 L141.049381,74.9741211 L140.963443,74.9741211 L139.3736,70.2099609 L138.374576,70.2099609 L140.517643,76.0053711 L140.410221,76.3491211 C140.168521,77.0473633 139.878482,77.2998047 139.346744,77.2998047 C139.217838,77.2998047 139.072818,77.2944336 138.960025,77.2729492 L138.960025,78.0625 C139.088932,78.0839844 139.250064,78.0947266 139.3736,78.0947266 Z M149.485736,76.0429688 C149.668354,76.0429688 149.8456,76.0214844 150.028217,75.9892578 L150.028217,75.2104492 C149.856342,75.2265625 149.765033,75.2319336 149.598529,75.2319336 C148.996967,75.2319336 148.739154,74.9418945 148.739154,74.2597656 L148.739154,70.9833984 L150.028217,70.9833984 L150.028217,70.2099609 L148.739154,70.2099609 L148.739154,68.7114258 L147.815326,68.7114258 L147.815326,70.2099609 L146.880756,70.2099609 L146.880756,70.9833984 L147.815326,70.9833984 L147.815326,74.4960938 C147.815326,75.6025391 148.293354,76.0429688 149.485736,76.0429688 Z M151.6441,69.0927734 C151.998592,69.0927734 152.288631,68.8027344 152.288631,68.4482422 C152.288631,68.09375 151.998592,67.8037109 151.6441,67.8037109 C151.289607,67.8037109 150.999568,68.09375 150.999568,68.4482422 C150.999568,68.8027344 151.289607,69.0927734 151.6441,69.0927734 Z M152.106014,76 L152.106014,70.2099609 L151.182186,70.2099609 L151.182186,76 L152.106014,76 Z M155.660861,76.0429688 C155.843479,76.0429688 156.020725,76.0214844 156.203342,75.9892578 L156.203342,75.2104492 C156.031467,75.2265625 155.940158,75.2319336 155.773654,75.2319336 C155.172092,75.2319336 154.914279,74.9418945 154.914279,74.2597656 L154.914279,70.9833984 L156.203342,70.9833984 L156.203342,70.2099609 L154.914279,70.2099609 L154.914279,68.7114258 L153.990451,68.7114258 L153.990451,70.2099609 L153.055881,70.2099609 L153.055881,70.9833984 L153.990451,70.9833984 L153.990451,74.4960938 C153.990451,75.6025391 154.468479,76.0429688 155.660861,76.0429688 Z M158.313365,76 L158.313365,67.9111328 L157.389537,67.9111328 L157.389537,76 L158.313365,76 Z M162.163623,76.1020508 C163.431201,76.1020508 164.333545,75.4897461 164.6021,74.5014648 L163.678271,74.5014648 C163.436572,75.0117188 162.931689,75.2856445 162.185107,75.2856445 C161.202197,75.2856445 160.563037,74.5605469 160.514697,73.4165039 L160.514697,73.3735352 L164.677295,73.3735352 L164.677295,73.019043 C164.677295,71.2197266 163.726611,70.1079102 162.163623,70.1079102 C160.573779,70.1079102 159.553271,71.2895508 159.553271,73.1103516 C159.553271,74.9418945 160.557666,76.1020508 162.163623,76.1020508 Z M163.705127,72.6269531 L160.514697,72.6269531 C160.584521,71.6010742 161.229053,70.9243164 162.152881,70.9243164 C163.071338,70.9243164 163.683643,71.6010742 163.705127,72.6269531 Z" id="Withoutmessage,onlytitle" fill="#000000" fill-rule="nonzero" opacity="0.300000012"></path>
                    <g id="Titles" transform="translate(59.500000, 17.000000)" fill="#000000" fill-rule="nonzero" opacity="0.600000024">
                        <path d="M5.1002832,12 C7.05536133,12 8.2487207,11.0097656 8.2487207,9.39746094 C8.2487207,8.20410156 7.39813477,7.31542969 6.16668945,7.20117188 L6.16668945,7.08691406 C7.08709961,6.94091797 7.79803711,6.09033203 7.79803711,5.12548828 C7.79803711,3.71630859 6.75067383,2.84033203 5.01141602,2.84033203 L1.1837793,2.84033203 L1.1837793,12 L5.1002832,12 Z M4.40204102,6.69970703 L2.82147461,6.69970703 L2.82147461,4.11621094 L4.61151367,4.11621094 C5.60174805,4.11621094 6.17938477,4.59228516 6.17938477,5.41113281 C6.17938477,6.24902344 5.56366211,6.69970703 4.40204102,6.69970703 Z M4.72577148,10.7241211 L2.82147461,10.7241211 L2.82147461,7.86132812 L4.66229492,7.86132812 C5.9127832,7.86132812 6.57293945,8.35009766 6.57293945,9.28320312 C6.57293945,10.2226562 5.93182617,10.7241211 4.72577148,10.7241211 Z M12.5451191,12.1396484 C14.6208027,12.1396484 15.8839863,10.78125 15.8839863,8.52783203 C15.8839863,6.28710938 14.6144551,4.92871094 12.5451191,4.92871094 C10.4821309,4.92871094 9.20625195,6.29345703 9.20625195,8.52783203 C9.20625195,10.78125 10.4630879,12.1396484 12.5451191,12.1396484 Z M12.5451191,10.8510742 C11.4469746,10.8510742 10.8185566,10.0004883 10.8185566,8.53417969 C10.8185566,7.06787109 11.4469746,6.21728516 12.5451191,6.21728516 C13.636916,6.21728516 14.265334,7.06787109 14.265334,8.53417969 C14.265334,10.0004883 13.6432637,10.8510742 12.5451191,10.8510742 Z M20.1549941,12.1396484 C22.2306777,12.1396484 23.4938613,10.78125 23.4938613,8.52783203 C23.4938613,6.28710938 22.2243301,4.92871094 20.1549941,4.92871094 C18.0920059,4.92871094 16.816127,6.29345703 16.816127,8.52783203 C16.816127,10.78125 18.0729629,12.1396484 20.1549941,12.1396484 Z M20.1549941,10.8510742 C19.0568496,10.8510742 18.4284316,10.0004883 18.4284316,8.53417969 C18.4284316,7.06787109 19.0568496,6.21728516 20.1549941,6.21728516 C21.246791,6.21728516 21.875209,7.06787109 21.875209,8.53417969 C21.875209,10.0004883 21.2531387,10.8510742 20.1549941,10.8510742 Z M26.4064707,12 L26.4064707,9.5625 L26.9650645,9.00390625 L29.1930918,12 L31.0973887,12 L28.1393809,8.0390625 L30.906959,5.06201172 L29.078834,5.06201172 L26.5143809,7.90576172 L26.4064707,7.90576172 L26.4064707,2.37695312 L24.832252,2.37695312 L24.832252,12 L26.4064707,12 Z M33.5720098,12 L33.5720098,7.77880859 C33.5720098,6.91552734 34.1496465,6.26171875 34.9304082,6.26171875 C35.7048223,6.26171875 36.1872441,6.73144531 36.1872441,7.49951172 L36.1872441,12 L37.7170293,12 L37.7170293,7.66455078 C37.7170293,6.87109375 38.2565801,6.26171875 39.0754277,6.26171875 C39.919666,6.26171875 40.344959,6.71240234 40.344959,7.61376953 L40.344959,12 L41.9128301,12 L41.9128301,7.2265625 C41.9128301,5.78564453 41.0749395,4.92871094 39.6848027,4.92871094 C38.719959,4.92871094 37.9201543,5.42382812 37.5773809,6.17919922 L37.4694707,6.17919922 C37.1774785,5.41113281 36.5109746,4.92871094 35.5524785,4.92871094 C34.6320684,4.92871094 33.9211309,5.3984375 33.622791,6.17919922 L33.5148809,6.17919922 L33.5148809,5.06201172 L31.997791,5.06201172 L31.997791,12 L33.5720098,12 Z M45.3776855,12.1142578 C46.2854004,12.1142578 47.0471191,11.7207031 47.4343262,11.0478516 L47.5422363,11.0478516 L47.5422363,12 L49.0593262,12 L49.0593262,7.25830078 C49.0593262,5.79199219 48.0563965,4.92871094 46.2727051,4.92871094 C44.6223145,4.92871094 43.4733887,5.703125 43.3464355,6.91552734 L44.8317871,6.91552734 C44.9777832,6.43945312 45.4729004,6.17919922 46.1965332,6.17919922 C47.0471191,6.17919922 47.5041504,6.56640625 47.5041504,7.25830078 L47.5041504,7.85498047 L45.7141113,7.96289062 C44.0256348,8.05810547 43.079834,8.78808594 43.079834,10.0322266 C43.079834,11.3017578 44.0383301,12.1142578 45.3776855,12.1142578 Z M45.8410645,10.9018555 C45.1428223,10.9018555 44.6413574,10.5527344 44.6413574,9.95605469 C44.6413574,9.37841797 45.0539551,9.0546875 45.9362793,8.99755859 L47.5041504,8.88964844 L47.5041504,9.45458984 C47.5041504,10.2797852 46.7932129,10.9018555 45.8410645,10.9018555 Z M52.2131465,12 L52.2131465,7.96923828 C52.2131465,6.99169922 52.924084,6.35693359 53.9460566,6.35693359 C54.2126582,6.35693359 54.6316035,6.40136719 54.752209,6.44580078 L54.752209,5.01123047 C54.6062129,4.97314453 54.326916,4.94775391 54.0984004,4.94775391 C53.2033809,4.94775391 52.4543574,5.45556641 52.2639277,6.14111328 L52.1560176,6.14111328 L52.1560176,5.06201172 L50.6389277,5.06201172 L50.6389277,12 L52.2131465,12 Z M57.3664785,12 L57.3664785,9.5625 L57.9250723,9.00390625 L60.1530996,12 L62.0573965,12 L59.0993887,8.0390625 L61.8669668,5.06201172 L60.0388418,5.06201172 L57.4743887,7.90576172 L57.3664785,7.90576172 L57.3664785,2.37695312 L55.7922598,2.37695312 L55.7922598,12 L57.3664785,12 Z M65.5095566,12.1396484 C67.147252,12.1396484 68.308873,11.3525391 68.5945176,10.1020508 L67.1028184,10.1020508 C66.8743027,10.6225586 66.334752,10.9145508 65.5539902,10.9145508 C64.5193223,10.9145508 63.8528184,10.1782227 63.8147324,9.00390625 L63.8147324,8.92138672 L68.6643418,8.92138672 L68.6643418,8.41992188 C68.6643418,6.24267578 67.4773301,4.92871094 65.4968613,4.92871094 C63.4846543,4.92871094 62.234166,6.33154297 62.234166,8.55957031 C62.234166,10.78125 63.4656113,12.1396484 65.5095566,12.1396484 Z M67.090123,7.87402344 L63.8210801,7.87402344 C63.8909043,6.83300781 64.5510605,6.15380859 65.4905137,6.15380859 C66.4363145,6.15380859 67.0583848,6.8203125 67.090123,7.87402344 Z M72.4465801,12.1142578 C73.4114238,12.1142578 74.2112285,11.6635742 74.6047832,10.9018555 L74.7126934,10.9018555 L74.7126934,12 L76.2361309,12 L76.2361309,2.37695312 L74.6619121,2.37695312 L74.6619121,6.16650391 L74.554002,6.16650391 C74.1858379,5.40478516 73.3987285,4.94775391 72.4465801,4.94775391 C70.694627,4.94775391 69.5901348,6.33154297 69.5901348,8.52783203 C69.5901348,10.7304688 70.6882793,12.1142578 72.4465801,12.1142578 Z M72.9353496,10.8066406 C71.856248,10.8066406 71.2024395,9.95605469 71.2024395,8.53417969 C71.2024395,7.11865234 71.8625957,6.26171875 72.9353496,6.26171875 C74.0144512,6.26171875 74.6809551,7.13134766 74.6809551,8.53417969 C74.6809551,9.94335938 74.0207988,10.8066406 72.9353496,10.8066406 Z" id="Bookmarked"></path>
                    </g>
                    <path d="M34.7945762,34.2373047 C35.5001426,34.2373047 36.0728965,33.7973633 36.0728965,32.8261719 L36.0728965,18.6318359 C36.0728965,16.7890625 35.1017051,15.7929688 33.2672324,15.7929688 L25.1407676,15.7929688 C23.3062949,15.7929688 22.3268027,16.7890625 22.3268027,18.6318359 L22.3268027,32.8261719 C22.3268027,33.7973633 22.9078574,34.2373047 23.605123,34.2373047 C24.1197715,34.2373047 24.4352012,33.9716797 25.1905723,33.2744141 L28.8263145,29.8295898 C28.9923301,29.671875 29.1002402,29.6303711 29.1998496,29.6303711 C29.3077598,29.6303711 29.4156699,29.671875 29.5816855,29.8295898 L33.5577598,33.6064453 C33.9561973,33.9799805 34.2799277,34.2373047 34.7945762,34.2373047 Z" id="icon" fill="#FF9500" fill-rule="nonzero"></path>
                </g>
            </g>
        </g>
    </g>
</svg>