<?xml version="1.0" encoding="UTF-8"?>
<svg width="275px" height="130px" viewBox="0 0 275 130" version="1.1" xmlns="http://www.w3.org/2000/svg" xmlns:xlink="http://www.w3.org/1999/xlink">
    <title>done-preview</title>
    <defs>
        <rect id="path-1" x="0" y="0" width="195" height="50" rx="25"></rect>
        <filter x="-32.6%" y="-113.0%" width="165.1%" height="354.0%" filterUnits="objectBoundingBox" id="filter-2">
            <feOffset dx="0" dy="7" in="SourceAlpha" result="shadowOffsetOuter1"></feOffset>
            <feGaussianBlur stdDeviation="20" in="shadowOffsetOuter1" result="shadowBlurOuter1"></feGaussianBlur>
            <feColorMatrix values="0 0 0 0 0.118101482   0 0 0 0 0.118751665   0 0 0 0 0.127745697  0 0 0 0.169607736 0" type="matrix" in="shadowBlurOuter1"></feColorMatrix>
        </filter>
    </defs>
    <g id="Page-1" stroke="none" stroke-width="1" fill="none" fill-rule="evenodd">
        <g id="Artboard-Copy" transform="translate(-98.000000, -439.000000)">
            <g id="done-preview" transform="translate(138.000000, 472.000000)">
                <g id="Background">
                    <use fill="black" fill-opacity="1" filter="url(#filter-2)" xlink:href="#path-1"></use>
                    <use fill="#FFFFFF" fill-rule="evenodd" xlink:href="#path-1"></use>
                </g>
                <g id="Titles" transform="translate(66.529488, 11.840332)" fill="#000000" fill-rule="nonzero">
                    <path d="M20.0815723,9.15966797 C22.8237598,9.15966797 24.3916309,7.47753906 24.3916309,4.53857422 C24.3916309,1.66308594 22.8047168,0 20.0815723,0 L16.6474902,0 L16.6474902,9.15966797 L20.0815723,9.15966797 Z M19.865752,7.78222656 L18.2851855,7.78222656 L18.2851855,1.37744141 L19.865752,1.37744141 C21.6621387,1.37744141 22.7221973,2.54541016 22.7221973,4.56396484 C22.7221973,6.62695312 21.6875293,7.78222656 19.865752,7.78222656 Z M28.7832441,9.29931641 C30.8589277,9.29931641 32.1221113,7.94091797 32.1221113,5.6875 C32.1221113,3.44677734 30.8525801,2.08837891 28.7832441,2.08837891 C26.7202559,2.08837891 25.444377,3.453125 25.444377,5.6875 C25.444377,7.94091797 26.7012129,9.29931641 28.7832441,9.29931641 Z M28.7832441,8.01074219 C27.6850996,8.01074219 27.0566816,7.16015625 27.0566816,5.69384766 C27.0566816,4.22753906 27.6850996,3.37695312 28.7832441,3.37695312 C29.875041,3.37695312 30.503459,4.22753906 30.503459,5.69384766 C30.503459,7.16015625 29.8813887,8.01074219 28.7832441,8.01074219 Z M34.9712441,9.15966797 L34.9712441,5.11621094 C34.9712441,4.07519531 35.5615762,3.42138672 36.5010293,3.42138672 C37.4595254,3.42138672 37.9038613,3.9609375 37.9038613,5.04003906 L37.9038613,9.15966797 L39.4780801,9.15966797 L39.4780801,4.671875 C39.4780801,3.02148438 38.6338418,2.08837891 37.0850137,2.08837891 C36.0503457,2.08837891 35.3521035,2.55810547 35.0220254,3.33251953 L34.9141152,3.33251953 L34.9141152,2.22167969 L33.3970254,2.22167969 L33.3970254,9.15966797 L34.9712441,9.15966797 Z M43.9649082,9.29931641 C45.6026035,9.29931641 46.7642246,8.51220703 47.0498691,7.26171875 L45.5581699,7.26171875 C45.3296543,7.78222656 44.7901035,8.07421875 44.0093418,8.07421875 C42.9746738,8.07421875 42.3081699,7.33789062 42.270084,6.16357422 L42.270084,6.08105469 L47.1196934,6.08105469 L47.1196934,5.57958984 C47.1196934,3.40234375 45.9326816,2.08837891 43.9522129,2.08837891 C41.9400059,2.08837891 40.6895176,3.49121094 40.6895176,5.71923828 C40.6895176,7.94091797 41.9209629,9.29931641 43.9649082,9.29931641 Z M45.5454746,5.03369141 L42.2764316,5.03369141 C42.3462559,3.99267578 43.0064121,3.31347656 43.9458652,3.31347656 C44.891666,3.31347656 45.5137363,3.97998047 45.5454746,5.03369141 Z" id="Done" opacity="0.600000024"></path>
                    <path d="M4.20849609,25.3881836 C6.32226562,25.3881836 7.87109375,24.1376953 8.08691406,22.2841797 L6.47460938,22.2841797 C6.25244141,23.3125 5.37011719,23.9663086 4.20849609,23.9663086 C2.64697266,23.9663086 1.67578125,22.6650391 1.67578125,20.5766602 C1.67578125,18.4946289 2.64697266,17.1933594 4.20214844,17.1933594 C5.35742188,17.1933594 6.23974609,17.9106445 6.46826172,19.0151367 L8.08056641,19.0151367 C7.89013672,17.1171875 6.28417969,15.7714844 4.20214844,15.7714844 C1.60595703,15.7714844 0,17.605957 0,20.5830078 C0,23.5473633 1.61230469,25.3881836 4.20849609,25.3881836 Z M12.4213984,25.2993164 C14.497082,25.2993164 15.7602656,23.940918 15.7602656,21.6875 C15.7602656,19.4467773 14.4907344,18.0883789 12.4213984,18.0883789 C10.3584102,18.0883789 9.08253125,19.453125 9.08253125,21.6875 C9.08253125,23.940918 10.3393672,25.2993164 12.4213984,25.2993164 Z M12.4213984,24.0107422 C11.3232539,24.0107422 10.6948359,23.1601562 10.6948359,21.6938477 C10.6948359,20.2275391 11.3232539,19.3769531 12.4213984,19.3769531 C13.5131953,19.3769531 14.1416133,20.2275391 14.1416133,21.6938477 C14.1416133,23.1601562 13.519543,24.0107422 12.4213984,24.0107422 Z M18.6093984,25.159668 L18.6093984,21.1162109 C18.6093984,20.0751953 19.1997305,19.4213867 20.1391836,19.4213867 C21.0976797,19.4213867 21.5420156,19.9609375 21.5420156,21.0400391 L21.5420156,25.159668 L23.1162344,25.159668 L23.1162344,20.671875 C23.1162344,19.0214844 22.2719961,18.0883789 20.723168,18.0883789 C19.6885,18.0883789 18.9902578,18.5581055 18.6601797,19.3325195 L18.5522695,19.3325195 L18.5522695,18.2216797 L17.0351797,18.2216797 L17.0351797,25.159668 L18.6093984,25.159668 Z M26.7461289,25.159668 L26.7461289,19.4912109 L28.2378281,19.4912109 L28.2378281,18.2661133 L26.7270859,18.2661133 L26.7270859,17.625 C26.7270859,16.9648438 27.0190781,16.6347656 27.7617539,16.6347656 C27.9839219,16.6347656 28.1743516,16.6538086 28.3013047,16.6728516 L28.3013047,15.5366211 C28.0473984,15.4921875 27.7617539,15.4731445 27.4253281,15.4731445 C25.8828477,15.4731445 25.1782578,16.1523438 25.1782578,17.5361328 L25.1782578,18.2661133 L24.0420273,18.2661133 L24.0420273,19.4912109 L25.1782578,19.4912109 L25.1782578,25.159668 L26.7461289,25.159668 Z M30.2427227,17.0600586 C30.7632305,17.0600586 31.1885234,16.6474609 31.1885234,16.1269531 C31.1885234,15.612793 30.7632305,15.1938477 30.2427227,15.1938477 C29.7285625,15.1938477 29.3032695,15.612793 29.3032695,16.1269531 C29.3032695,16.6474609 29.7285625,17.0600586 30.2427227,17.0600586 Z M31.029832,25.159668 L31.029832,18.2216797 L29.4619609,18.2216797 L29.4619609,25.159668 L31.029832,25.159668 Z M34.2407812,25.159668 L34.2407812,21.1289062 C34.2407812,20.1513672 34.9517187,19.5166016 35.9736914,19.5166016 C36.240293,19.5166016 36.6592383,19.5610352 36.7798437,19.6054688 L36.7798437,18.1708984 C36.6338477,18.1328125 36.3545508,18.1074219 36.1260352,18.1074219 C35.2310156,18.1074219 34.4819922,18.6152344 34.2915625,19.3007812 L34.1836523,19.3007812 L34.1836523,18.2216797 L32.6665625,18.2216797 L32.6665625,25.159668 L34.2407812,25.159668 Z M39.4195039,25.159668 L39.4195039,20.9384766 C39.4195039,20.0751953 39.9971406,19.4213867 40.7779023,19.4213867 C41.5523164,19.4213867 42.0347383,19.8911133 42.0347383,20.6591797 L42.0347383,25.159668 L43.5645234,25.159668 L43.5645234,20.8242188 C43.5645234,20.0307617 44.1040742,19.4213867 44.9229219,19.4213867 C45.7671602,19.4213867 46.1924531,19.8720703 46.1924531,20.7734375 L46.1924531,25.159668 L47.7603242,25.159668 L47.7603242,20.3862305 C47.7603242,18.9453125 46.9224336,18.0883789 45.5322969,18.0883789 C44.5674531,18.0883789 43.7676484,18.5834961 43.424875,19.3388672 L43.3169648,19.3388672 C43.0249727,18.5708008 42.3584688,18.0883789 41.3999727,18.0883789 C40.4795625,18.0883789 39.768625,18.5581055 39.4702852,19.3388672 L39.362375,19.3388672 L39.362375,18.2216797 L37.8452852,18.2216797 L37.8452852,25.159668 L39.4195039,25.159668 Z M52.2471523,25.2993164 C53.8848477,25.2993164 55.0464688,24.512207 55.3321133,23.2617188 L53.8404141,23.2617188 C53.6118984,23.7822266 53.0723477,24.0742188 52.2915859,24.0742188 C51.256918,24.0742188 50.5904141,23.3378906 50.5523281,22.1635742 L50.5523281,22.0810547 L55.4019375,22.0810547 L55.4019375,21.5795898 C55.4019375,19.4023438 54.2149258,18.0883789 52.234457,18.0883789 C50.22225,18.0883789 48.9717617,19.4912109 48.9717617,21.7192383 C48.9717617,23.940918 50.203207,25.2993164 52.2471523,25.2993164 Z M53.8277188,21.0336914 L50.5586758,21.0336914 C50.6285,19.9926758 51.2886563,19.3134766 52.2281094,19.3134766 C53.1739102,19.3134766 53.7959805,19.9799805 53.8277188,21.0336914 Z M59.1841758,25.2739258 C60.1490195,25.2739258 60.9488242,24.8232422 61.3423789,24.0615234 L61.4502891,24.0615234 L61.4502891,25.159668 L62.9737266,25.159668 L62.9737266,15.5366211 L61.3995078,15.5366211 L61.3995078,19.3261719 L61.2915977,19.3261719 C60.9234336,18.5644531 60.1363242,18.1074219 59.1841758,18.1074219 C57.4322227,18.1074219 56.3277305,19.4912109 56.3277305,21.6875 C56.3277305,23.8901367 57.425875,25.2739258 59.1841758,25.2739258 Z M59.6729453,23.9663086 C58.5938438,23.9663086 57.9400352,23.1157227 57.9400352,21.6938477 C57.9400352,20.2783203 58.6001914,19.4213867 59.6729453,19.4213867 C60.7520469,19.4213867 61.4185508,20.2910156 61.4185508,21.6938477 C61.4185508,23.1030273 60.7583945,23.9663086 59.6729453,23.9663086 Z" id="Confirmed" opacity="0.300000012"></path>
                </g>
                <path d="M29.264,36.4804688 C35.4192734,36.4804688 40.4895859,31.4101562 40.4895859,25.2548828 C40.4895859,19.0996094 35.4085312,14.0185547 29.2532578,14.0185547 C23.0979844,14.0185547 18.0384141,19.0996094 18.0384141,25.2548828 C18.0384141,31.4101562 23.1087266,36.4804688 29.264,36.4804688 Z M27.8138047,30.9482422 C27.3626328,30.9482422 27.0081406,30.7441406 26.6966172,30.3681641 L23.6028672,26.6513672 C23.3880234,26.3935547 23.2806016,26.1142578 23.2806016,25.8242188 C23.2806016,25.2011719 23.7854844,24.7177734 24.3870469,24.7177734 C24.7522812,24.7177734 25.0423203,24.8681641 25.3216172,25.2011719 L27.7815781,28.2519531 L32.5081406,20.7109375 C32.7766953,20.2919922 33.0989609,20.0878906 33.4856797,20.0878906 C34.0765,20.0878906 34.6243516,20.5068359 34.6243516,21.1298828 C34.6243516,21.3876953 34.5061875,21.6777344 34.3450547,21.9355469 L28.8880234,30.3359375 C28.6302109,30.7333984 28.2434922,30.9482422 27.8138047,30.9482422 Z" id="icon" fill="#007AFF" fill-rule="nonzero"></path>
            </g>
        </g>
    </g>
</svg>