<?xml version="1.0" encoding="UTF-8"?>
<svg width="276px" height="130px" viewBox="0 0 276 130" version="1.1" xmlns="http://www.w3.org/2000/svg" xmlns:xlink="http://www.w3.org/1999/xlink">
    <title>error-preview</title>
    <defs>
        <rect id="path-1" x="0" y="0" width="196" height="50" rx="25"></rect>
        <filter x="-32.4%" y="-113.0%" width="164.8%" height="354.0%" filterUnits="objectBoundingBox" id="filter-2">
            <feOffset dx="0" dy="7" in="SourceAlpha" result="shadowOffsetOuter1"></feOffset>
            <feGaussianBlur stdDeviation="20" in="shadowOffsetOuter1" result="shadowBlurOuter1"></feGaussianBlur>
            <feColorMatrix values="0 0 0 0 0.118101482   0 0 0 0 0.118751665   0 0 0 0 0.127745697  0 0 0 0.164089816 0" type="matrix" in="shadowBlurOuter1"></feColorMatrix>
        </filter>
    </defs>
    <g id="Page-1" stroke="none" stroke-width="1" fill="none" fill-rule="evenodd">
        <g id="Artboard-Copy" transform="translate(-98.000000, -512.000000)">
            <g id="error-preview" transform="translate(138.000000, 545.000000)">
                <g id="Background">
                    <use fill="black" fill-opacity="1" filter="url(#filter-2)" xlink:href="#path-1"></use>
                    <use fill="#FFFFFF" fill-rule="evenodd" xlink:href="#path-1"></use>
                </g>
                <g id="Titles" transform="translate(69.000000, 9.000000)" fill="#000000" fill-rule="nonzero">
                    <path d="M20.8361523,12 L20.8361523,10.6225586 L16.5451367,10.6225586 L16.5451367,8.00097656 L20.6012891,8.00097656 L20.6012891,6.69970703 L16.5451367,6.69970703 L16.5451367,4.21777344 L20.8361523,4.21777344 L20.8361523,2.84033203 L14.9074414,2.84033203 L14.9074414,12 L20.8361523,12 Z M23.964582,12 L23.964582,7.96923828 C23.964582,6.99169922 24.6755195,6.35693359 25.6974922,6.35693359 C25.9640938,6.35693359 26.3830391,6.40136719 26.5036445,6.44580078 L26.5036445,5.01123047 C26.3576484,4.97314453 26.0783516,4.94775391 25.8498359,4.94775391 C24.9548164,4.94775391 24.205793,5.45556641 24.0153633,6.14111328 L23.9074531,6.14111328 L23.9074531,5.06201172 L22.3903633,5.06201172 L22.3903633,12 L23.964582,12 Z M29.1433047,12 L29.1433047,7.96923828 C29.1433047,6.99169922 29.8542422,6.35693359 30.8762148,6.35693359 C31.1428164,6.35693359 31.5617617,6.40136719 31.6823672,6.44580078 L31.6823672,5.01123047 C31.5363711,4.97314453 31.2570742,4.94775391 31.0285586,4.94775391 C30.1335391,4.94775391 29.3845156,5.45556641 29.1940859,6.14111328 L29.0861758,6.14111328 L29.0861758,5.06201172 L27.5690859,5.06201172 L27.5690859,12 L29.1433047,12 Z M35.4836484,12.1396484 C37.559332,12.1396484 38.8225156,10.78125 38.8225156,8.52783203 C38.8225156,6.28710938 37.5529844,4.92871094 35.4836484,4.92871094 C33.4206602,4.92871094 32.1447813,6.29345703 32.1447813,8.52783203 C32.1447813,10.78125 33.4016172,12.1396484 35.4836484,12.1396484 Z M35.4836484,10.8510742 C34.3855039,10.8510742 33.7570859,10.0004883 33.7570859,8.53417969 C33.7570859,7.06787109 34.3855039,6.21728516 35.4836484,6.21728516 C36.5754453,6.21728516 37.2038633,7.06787109 37.2038633,8.53417969 C37.2038633,10.0004883 36.581793,10.8510742 35.4836484,10.8510742 Z M41.6716484,12 L41.6716484,7.96923828 C41.6716484,6.99169922 42.3825859,6.35693359 43.4045586,6.35693359 C43.6711602,6.35693359 44.0901055,6.40136719 44.2107109,6.44580078 L44.2107109,5.01123047 C44.0647148,4.97314453 43.785418,4.94775391 43.5569023,4.94775391 C42.6618828,4.94775391 41.9128594,5.45556641 41.7224297,6.14111328 L41.6145195,6.14111328 L41.6145195,5.06201172 L40.0974297,5.06201172 L40.0974297,12 L41.6716484,12 Z" id="Error" opacity="0.600000024"></path>
                    <path d="M5.38471289,28 L5.38471289,20.2177734 L8.20941992,20.2177734 L8.20941992,18.840332 L0.928658203,18.840332 L0.928658203,20.2177734 L3.74701758,20.2177734 L3.74701758,28 L5.38471289,28 Z M10.2079668,28 L10.2079668,23.9692383 C10.2079668,22.9916992 10.9189043,22.3569336 11.940877,22.3569336 C12.2074785,22.3569336 12.6264238,22.4013672 12.7470293,22.4458008 L12.7470293,21.0112305 C12.6010332,20.9731445 12.3217363,20.9477539 12.0932207,20.9477539 C11.1982012,20.9477539 10.4491777,21.4555664 10.258748,22.1411133 L10.1508379,22.1411133 L10.1508379,21.0620117 L8.63374805,21.0620117 L8.63374805,28 L10.2079668,28 Z M14.5487988,30.5136719 C16.1039746,30.5136719 16.8466504,29.9487305 17.4369824,28.2412109 L19.9443066,21.0620117 L18.2812207,21.0620117 L16.6625684,26.5083008 L16.5546582,26.5083008 L14.9296582,21.0620117 L13.2030957,21.0620117 L15.6850293,28.0253906 L15.6025098,28.3491211 C15.3993848,29.0029297 15.024873,29.2568359 14.3583691,29.2568359 C14.250459,29.2568359 14.0155957,29.2504883 13.9267285,29.237793 L13.9267285,30.4882812 C14.028291,30.5073242 14.453584,30.5136719 14.5487988,30.5136719 Z M25.2807559,28 L26.0678652,25.6323242 L29.4384707,25.6323242 L30.2128848,28 L31.9711855,28 L28.7148379,18.840332 L26.8740176,18.840332 L23.6240176,28 L25.2807559,28 Z M29.0576113,24.3691406 L26.4487246,24.3691406 L27.7055605,20.5605469 L27.8134707,20.5605469 L29.0576113,24.3691406 Z M35.6709043,30.640625 C37.6958066,30.640625 38.9780332,29.6313477 38.9780332,28.0380859 L38.9780332,21.0620117 L37.4609434,21.0620117 L37.4609434,22.1728516 L37.3530332,22.1728516 C36.9721738,21.4174805 36.1469785,20.9477539 35.2011777,20.9477539 C33.4301816,20.9477539 32.3320371,22.331543 32.3320371,24.4580078 C32.3320371,26.5400391 33.423834,27.8984375 35.1757871,27.8984375 C36.1406309,27.8984375 36.896002,27.4921875 37.2959043,26.7431641 L37.4038145,26.7431641 L37.4038145,28.0634766 C37.4038145,28.9458008 36.7753965,29.4663086 35.6962949,29.4663086 C34.8330137,29.4663086 34.2744199,29.1552734 34.1728574,28.6665039 L32.592291,28.6665039 C32.7192441,29.8598633 33.8872129,30.640625 35.6709043,30.640625 Z M35.6709043,26.6479492 C34.5727598,26.6479492 33.9506895,25.7973633 33.9506895,24.4516602 C33.9506895,23.1123047 34.5727598,22.2617188 35.6709043,22.2617188 C36.7627012,22.2617188 37.4292051,23.1123047 37.4292051,24.4580078 C37.4292051,25.7973633 36.7690488,26.6479492 35.6709043,26.6479492 Z M42.5063652,28.1142578 C43.4140801,28.1142578 44.1757988,27.7207031 44.5630059,27.0478516 L44.670916,27.0478516 L44.670916,28 L46.1880059,28 L46.1880059,23.2583008 C46.1880059,21.7919922 45.1850762,20.9287109 43.4013848,20.9287109 C41.7509941,20.9287109 40.6020684,21.703125 40.4751152,22.9155273 L41.9604668,22.9155273 C42.1064629,22.4394531 42.6015801,22.1791992 43.3252129,22.1791992 C44.1757988,22.1791992 44.6328301,22.5664062 44.6328301,23.2583008 L44.6328301,23.8549805 L42.842791,23.9628906 C41.1543145,24.0581055 40.2085137,24.7880859 40.2085137,26.0322266 C40.2085137,27.3017578 41.1670098,28.1142578 42.5063652,28.1142578 Z M42.9697441,26.9018555 C42.271502,26.9018555 41.7700371,26.5527344 41.7700371,25.9560547 C41.7700371,25.378418 42.1826348,25.0546875 43.064959,24.9975586 L44.6328301,24.8896484 L44.6328301,25.4545898 C44.6328301,26.2797852 43.9218926,26.9018555 42.9697441,26.9018555 Z M48.5674121,19.9003906 C49.0879199,19.9003906 49.5132129,19.487793 49.5132129,18.9672852 C49.5132129,18.453125 49.0879199,18.0341797 48.5674121,18.0341797 C48.053252,18.0341797 47.627959,18.453125 47.627959,18.9672852 C47.627959,19.487793 48.053252,19.9003906 48.5674121,19.9003906 Z M49.3545215,28 L49.3545215,21.0620117 L47.7866504,21.0620117 L47.7866504,28 L49.3545215,28 Z M52.5654707,28 L52.5654707,23.956543 C52.5654707,22.9155273 53.1558027,22.2617188 54.0952559,22.2617188 C55.053752,22.2617188 55.4980879,22.8012695 55.4980879,23.8803711 L55.4980879,28 L57.0723066,28 L57.0723066,23.512207 C57.0723066,21.8618164 56.2280684,20.9287109 54.6792402,20.9287109 C53.6445723,20.9287109 52.9463301,21.3984375 52.616252,22.1728516 L52.5083418,22.1728516 L52.5083418,21.0620117 L50.991252,21.0620117 L50.991252,28 L52.5654707,28 Z" id="TryAgain" opacity="0.300000012"></path>
                </g>
                <path d="M36.2571641,32.2480469 C36.8050156,31.7001953 36.8050156,30.7763672 36.2679062,30.2392578 L31.2835312,25.265625 L36.2679062,20.28125 C36.8050156,19.7441406 36.8050156,18.8203125 36.2571641,18.2724609 C35.7093125,17.7138672 34.7854844,17.7246094 34.248375,18.2617188 L29.264,23.2353516 L24.279625,18.2509766 C23.764,17.7353516 22.8186875,17.7138672 22.2708359,18.2617188 C21.7122422,18.8095703 21.7337266,19.7548828 22.2600937,20.28125 L27.2444687,25.265625 L22.2600937,30.25 C21.7337266,30.765625 21.7122422,31.7109375 22.2708359,32.2587891 C22.8186875,32.8066406 23.764,32.7851562 24.279625,32.2695312 L29.264,27.2851562 L34.248375,32.2587891 C34.7854844,32.7958984 35.7093125,32.8066406 36.2571641,32.2480469 Z" id="icon" fill="#FF3B30" fill-rule="nonzero"></path>
            </g>
        </g>
    </g>
</svg>