<?xml version="1.0" encoding="UTF-8"?>
<svg width="276px" height="130px" viewBox="0 0 276 130" version="1.1" xmlns="http://www.w3.org/2000/svg" xmlns:xlink="http://www.w3.org/1999/xlink">
    <title>error-preview</title>
    <defs>
        <rect id="path-1" x="0" y="0" width="196" height="50" rx="25"></rect>
        <filter x="-32.4%" y="-113.0%" width="164.8%" height="354.0%" filterUnits="objectBoundingBox" id="filter-2">
            <feOffset dx="0" dy="7" in="SourceAlpha" result="shadowOffsetOuter1"></feOffset>
            <feGaussianBlur stdDeviation="20" in="shadowOffsetOuter1" result="shadowBlurOuter1"></feGaussianBlur>
            <feColorMatrix values="0 0 0 0 0.118101482   0 0 0 0 0.118751665   0 0 0 0 0.127745697  0 0 0 0.164089816 0" type="matrix" in="shadowBlurOuter1"></feColorMatrix>
        </filter>
    </defs>
    <g id="Page-1" stroke="none" stroke-width="1" fill="none" fill-rule="evenodd">
        <g id="Artboard-Copy" transform="translate(-651.000000, -483.000000)">
            <g id="Group-2" transform="translate(138.000000, 472.000000)">
                <g id="error-preview" transform="translate(553.000000, 44.000000)">
                    <g id="Background">
                        <use fill="black" fill-opacity="1" filter="url(#filter-2)" xlink:href="#path-1"></use>
                        <use fill="#FFFFFF" fill-rule="evenodd" xlink:href="#path-1"></use>
                    </g>
                    <path d="M30.3992852,76 L30.3992852,72.9331055 L32.3060234,72.9331055 L33.9656914,76 L35.0989922,76 L33.3050469,72.7827148 C34.2772148,72.4765625 34.8626641,71.6386719 34.8626641,70.559082 C34.8626641,69.1625977 33.885125,68.2495117 32.3919609,68.2495117 L29.4324883,68.2495117 L29.4324883,76 L30.3992852,76 Z M32.3060234,72.0737305 L30.3992852,72.0737305 L30.3992852,69.1088867 L32.2630547,69.1088867 C33.2620781,69.1088867 33.8636406,69.6621094 33.8636406,70.5913086 C33.8636406,71.5419922 33.2996758,72.0737305 32.3060234,72.0737305 Z M38.3960273,76.1020508 C39.6636055,76.1020508 40.5659492,75.4897461 40.8345039,74.5014648 L39.9106758,74.5014648 C39.6689766,75.0117188 39.1640938,75.2856445 38.4175117,75.2856445 C37.4346016,75.2856445 36.7954414,74.5605469 36.7471016,73.4165039 L36.7471016,73.3735352 L40.9096992,73.3735352 L40.9096992,73.019043 C40.9096992,71.2197266 39.9590156,70.1079102 38.3960273,70.1079102 C36.8061836,70.1079102 35.7856758,71.2895508 35.7856758,73.1103516 C35.7856758,74.9418945 36.7900703,76.1020508 38.3960273,76.1020508 Z M39.9375313,72.6269531 L36.7471016,72.6269531 C36.8169258,71.6010742 37.461457,70.9243164 38.3852852,70.9243164 C39.3037422,70.9243164 39.9160469,71.6010742 39.9375313,72.6269531 Z M43.7072227,76.1020508 C44.4806602,76.1020508 45.1144492,75.7636719 45.4904258,75.1459961 L45.5763633,75.1459961 L45.5763633,76 L46.4572227,76 L46.4572227,72.0361328 C46.4572227,70.8330078 45.6676719,70.1079102 44.2550742,70.1079102 C43.0197227,70.1079102 42.1066367,70.7202148 41.9831016,71.6494141 L42.9176719,71.6494141 C43.0465781,71.1928711 43.5299766,70.9296875 44.2228477,70.9296875 C45.0875938,70.9296875 45.5333945,71.3217773 45.5333945,72.0361328 L45.5333945,72.5625 L43.8629844,72.6645508 C42.5148398,72.7451172 41.7521445,73.3413086 41.7521445,74.3779297 C41.7521445,75.4360352 42.5846641,76.1020508 43.7072227,76.1020508 Z M43.8790977,75.2910156 C43.2077109,75.2910156 42.7081992,74.9472656 42.7081992,74.3564453 C42.7081992,73.7763672 43.094918,73.4702148 43.9757773,73.4111328 L45.5333945,73.309082 L45.5333945,73.8408203 C45.5333945,74.6679688 44.8297813,75.2910156 43.8790977,75.2910156 Z M50.0442969,76.1020508 C50.8445898,76.1020508 51.5320898,75.7207031 51.8973242,75.0761719 L51.9832617,75.0761719 L51.9832617,76 L52.8641211,76 L52.8641211,67.9111328 L51.940293,67.9111328 L51.940293,71.1230469 L51.8597266,71.1230469 C51.5320898,70.4892578 50.8499609,70.1079102 50.0442969,70.1079102 C48.5726172,70.1079102 47.6111914,71.2895508 47.6111914,73.1049805 C47.6111914,74.9257812 48.561875,76.1020508 50.0442969,76.1020508 Z M50.2591406,75.2695312 C49.2010352,75.2695312 48.5672461,74.4584961 48.5672461,73.1049805 C48.5672461,71.7568359 49.2064063,70.9404297 50.2591406,70.9404297 C51.3065039,70.9404297 51.9617773,71.7783203 51.9617773,73.1049805 C51.9617773,74.4423828 51.311875,75.2695312 50.2591406,75.2695312 Z M54.888207,78.0947266 C55.9140859,78.0947266 56.376,77.6972656 56.8701406,76.3544922 L59.1313711,70.2099609 L58.1484609,70.2099609 L56.5639883,74.9741211 L56.4780508,74.9741211 L54.888207,70.2099609 L53.8891836,70.2099609 L56.03225,76.0053711 L55.9248281,76.3491211 C55.6831289,77.0473633 55.3930898,77.2998047 54.8613516,77.2998047 C54.7324453,77.2998047 54.5874258,77.2944336 54.4746328,77.2729492 L54.4746328,78.0625 C54.6035391,78.0839844 54.7646719,78.0947266 54.888207,78.0947266 Z M63.4811406,73.3198242 L63.4811406,72.4443359 L59.9577031,72.4443359 L59.9577031,73.3198242 L63.4811406,73.3198242 Z M66.8426289,76.1020508 C67.7288594,76.1020508 68.3465352,75.7368164 68.6365742,75.0922852 L68.7225117,75.0922852 L68.7225117,76 L69.6033711,76 L69.6033711,70.2099609 L68.679543,70.2099609 L68.679543,73.6367188 C68.679543,74.6518555 68.1209492,75.2587891 67.1004414,75.2587891 C66.1766133,75.2587891 65.7898945,74.7753906 65.7898945,73.7333984 L65.7898945,70.2099609 L64.8660664,70.2099609 L64.8660664,73.9589844 C64.8660664,75.3286133 65.5428242,76.1020508 66.8426289,76.1020508 Z M73.0669102,76.1020508 C74.3828281,76.1020508 75.3872227,75.3876953 75.3872227,74.3510742 C75.3872227,73.5185547 74.8608555,73.0458984 73.7705234,72.7827148 L72.8789219,72.5678711 C72.196793,72.4013672 71.8745273,72.1542969 71.8745273,71.7568359 C71.8745273,71.2412109 72.4116367,70.8920898 73.0991367,70.8920898 C73.7973789,70.8920898 74.2485508,71.1982422 74.3720859,71.6601562 L75.2851719,71.6601562 C75.1616367,70.7094727 74.318375,70.1079102 73.1045078,70.1079102 C71.8745273,70.1079102 70.9453281,70.8330078 70.9453281,71.7944336 C70.9453281,72.6323242 71.4394688,73.0996094 72.5244297,73.362793 L73.518082,73.6044922 C74.1357578,73.7548828 74.4365391,74.0234375 74.4365391,74.4208984 C74.4365391,74.9526367 73.8779453,75.3232422 73.0991367,75.3232422 C72.3579258,75.3232422 71.8960117,75.0117188 71.74025,74.5229492 L70.7895664,74.5229492 C70.8916172,75.484375 71.7778477,76.1020508 73.0669102,76.1020508 Z M78.8937305,76.1020508 C80.1613086,76.1020508 81.0636523,75.4897461 81.332207,74.5014648 L80.4083789,74.5014648 C80.1666797,75.0117188 79.6617969,75.2856445 78.9152148,75.2856445 C77.9323047,75.2856445 77.2931445,74.5605469 77.2448047,73.4165039 L77.2448047,73.3735352 L81.4074023,73.3735352 L81.4074023,73.019043 C81.4074023,71.2197266 80.4567188,70.1079102 78.8937305,70.1079102 C77.3038867,70.1079102 76.2833789,71.2895508 76.2833789,73.1103516 C76.2833789,74.9418945 77.2877734,76.1020508 78.8937305,76.1020508 Z M80.4352344,72.6269531 L77.2448047,72.6269531 C77.3146289,71.6010742 77.9591602,70.9243164 78.8829883,70.9243164 C79.8014453,70.9243164 80.41375,71.6010742 80.4352344,72.6269531 Z M87.045418,76.1020508 C87.8188555,76.1020508 88.4526445,75.7636719 88.8286211,75.1459961 L88.9145586,75.1459961 L88.9145586,76 L89.795418,76 L89.795418,72.0361328 C89.795418,70.8330078 89.0058672,70.1079102 87.5932695,70.1079102 C86.357918,70.1079102 85.444832,70.7202148 85.3212969,71.6494141 L86.2558672,71.6494141 C86.3847734,71.1928711 86.8681719,70.9296875 87.561043,70.9296875 C88.4257891,70.9296875 88.8715898,71.3217773 88.8715898,72.0361328 L88.8715898,72.5625 L87.2011797,72.6645508 C85.8530352,72.7451172 85.0903398,73.3413086 85.0903398,74.3779297 C85.0903398,75.4360352 85.9228594,76.1020508 87.045418,76.1020508 Z M87.217293,75.2910156 C86.5459063,75.2910156 86.0463945,74.9472656 86.0463945,74.3564453 C86.0463945,73.7763672 86.4331133,73.4702148 87.3139727,73.4111328 L88.8715898,73.309082 L88.8715898,73.8408203 C88.8715898,74.6679688 88.1679766,75.2910156 87.217293,75.2910156 Z M92.1632539,76 L92.1632539,72.5732422 C92.1632539,71.5581055 92.7594453,70.9404297 93.6832734,70.9404297 C94.6071016,70.9404297 95.0475313,71.4345703 95.0475313,72.4765625 L95.0475313,76 L95.9713594,76 L95.9713594,72.2509766 C95.9713594,70.8759766 95.2462617,70.1079102 93.946457,70.1079102 C93.0602266,70.1079102 92.4962617,70.4838867 92.2062227,71.1230469 L92.1202852,71.1230469 L92.1202852,70.2099609 L91.2394258,70.2099609 L91.2394258,76 L92.1632539,76 Z M97.8772813,69.0927734 C98.2317734,69.0927734 98.5218125,68.8027344 98.5218125,68.4482422 C98.5218125,68.09375 98.2317734,67.8037109 97.8772813,67.8037109 C97.5227891,67.8037109 97.23275,68.09375 97.23275,68.4482422 C97.23275,68.8027344 97.5227891,69.0927734 97.8772813,69.0927734 Z M98.3391953,76 L98.3391953,70.2099609 L97.4153672,70.2099609 L97.4153672,76 L98.3391953,76 Z M100.760742,76 L100.760742,72.4121094 C100.760742,71.5957031 101.346191,70.9404297 102.103516,70.9404297 C102.833984,70.9404297 103.312012,71.3808594 103.312012,72.0683594 L103.312012,76 L104.23584,76 L104.23584,72.277832 C104.23584,71.5419922 104.772949,70.9404297 105.578613,70.9404297 C106.39502,70.9404297 106.797852,71.359375 106.797852,72.2133789 L106.797852,76 L107.72168,76 L107.72168,71.9985352 C107.72168,70.784668 107.061035,70.1079102 105.879395,70.1079102 C105.079102,70.1079102 104.418457,70.5107422 104.106934,71.1230469 L104.020996,71.1230469 C103.752441,70.5214844 103.20459,70.1079102 102.42041,70.1079102 C101.646973,70.1079102 101.066895,70.4785156 100.803711,71.1230469 L100.717773,71.1230469 L100.717773,70.2099609 L99.8369141,70.2099609 L99.8369141,76 L100.760742,76 Z M110.755531,76.1020508 C111.528969,76.1020508 112.162758,75.7636719 112.538734,75.1459961 L112.624672,75.1459961 L112.624672,76 L113.505531,76 L113.505531,72.0361328 C113.505531,70.8330078 112.71598,70.1079102 111.303383,70.1079102 C110.068031,70.1079102 109.154945,70.7202148 109.03141,71.6494141 L109.96598,71.6494141 C110.094887,71.1928711 110.578285,70.9296875 111.271156,70.9296875 C112.135902,70.9296875 112.581703,71.3217773 112.581703,72.0361328 L112.581703,72.5625 L110.911293,72.6645508 C109.563148,72.7451172 108.800453,73.3413086 108.800453,74.3779297 C108.800453,75.4360352 109.632973,76.1020508 110.755531,76.1020508 Z M110.927406,75.2910156 C110.25602,75.2910156 109.756508,74.9472656 109.756508,74.3564453 C109.756508,73.7763672 110.143227,73.4702148 111.024086,73.4111328 L112.581703,73.309082 L112.581703,73.8408203 C112.581703,74.6679688 111.87809,75.2910156 110.927406,75.2910156 Z M117.006668,76.0429688 C117.189285,76.0429688 117.366531,76.0214844 117.549148,75.9892578 L117.549148,75.2104492 C117.377273,75.2265625 117.285965,75.2319336 117.119461,75.2319336 C116.517898,75.2319336 116.260086,74.9418945 116.260086,74.2597656 L116.260086,70.9833984 L117.549148,70.9833984 L117.549148,70.2099609 L116.260086,70.2099609 L116.260086,68.7114258 L115.336258,68.7114258 L115.336258,70.2099609 L114.401688,70.2099609 L114.401688,70.9833984 L115.336258,70.9833984 L115.336258,74.4960938 C115.336258,75.6025391 115.814285,76.0429688 117.006668,76.0429688 Z M120.921379,76.1020508 C122.188957,76.1020508 123.091301,75.4897461 123.359855,74.5014648 L122.436027,74.5014648 C122.194328,75.0117188 121.689445,75.2856445 120.942863,75.2856445 C119.959953,75.2856445 119.320793,74.5605469 119.272453,73.4165039 L119.272453,73.3735352 L123.435051,73.3735352 L123.435051,73.019043 C123.435051,71.2197266 122.484367,70.1079102 120.921379,70.1079102 C119.331535,70.1079102 118.311027,71.2895508 118.311027,73.1103516 C118.311027,74.9418945 119.315422,76.1020508 120.921379,76.1020508 Z M122.462883,72.6269531 L119.272453,72.6269531 C119.342277,71.6010742 119.986809,70.9243164 120.910637,70.9243164 C121.829094,70.9243164 122.441398,71.6010742 122.462883,72.6269531 Z M126.764313,76.1020508 C127.564605,76.1020508 128.252105,75.7207031 128.61734,75.0761719 L128.703277,75.0761719 L128.703277,76 L129.584137,76 L129.584137,67.9111328 L128.660309,67.9111328 L128.660309,71.1230469 L128.579742,71.1230469 C128.252105,70.4892578 127.569977,70.1079102 126.764313,70.1079102 C125.292633,70.1079102 124.331207,71.2895508 124.331207,73.1049805 C124.331207,74.9257812 125.281891,76.1020508 126.764313,76.1020508 Z M126.979156,75.2695312 C125.921051,75.2695312 125.287262,74.4584961 125.287262,73.1049805 C125.287262,71.7568359 125.926422,70.9404297 126.979156,70.9404297 C128.02652,70.9404297 128.681793,71.7783203 128.681793,73.1049805 C128.681793,74.4423828 128.031891,75.2695312 126.979156,75.2695312 Z M134.878402,77.9335938 L134.878402,75.1298828 L134.96434,75.1298828 C135.281234,75.7421875 135.94725,76.1020508 136.774398,76.1020508 C138.246078,76.1020508 139.207504,74.9150391 139.207504,73.1049805 C139.207504,71.2841797 138.251449,70.1079102 136.774398,70.1079102 C135.984848,70.1079102 135.291977,70.5107422 134.921371,71.1767578 L134.835434,71.1767578 L134.835434,70.2099609 L133.954574,70.2099609 L133.954574,77.9335938 L134.878402,77.9335938 Z M136.554184,75.2695312 C135.512191,75.2695312 134.851547,74.4316406 134.851547,73.1049805 C134.851547,71.7729492 135.512191,70.9404297 136.559555,70.9404297 C137.61766,70.9404297 138.251449,71.7514648 138.251449,73.1049805 C138.251449,74.4584961 137.61766,75.2695312 136.554184,75.2695312 Z M141.317527,76 L141.317527,72.4121094 C141.317527,71.5957031 141.956688,71.0048828 142.837547,71.0048828 C143.020164,71.0048828 143.353172,71.0371094 143.428367,71.0585938 L143.428367,70.1347656 C143.310203,70.1186523 143.116844,70.1079102 142.966453,70.1079102 C142.198387,70.1079102 141.532371,70.5053711 141.360496,71.0693359 L141.274559,71.0693359 L141.274559,70.2099609 L140.393699,70.2099609 L140.393699,76 L141.317527,76 Z M146.478332,76.1020508 C147.74591,76.1020508 148.648254,75.4897461 148.916809,74.5014648 L147.99298,74.5014648 C147.751281,75.0117188 147.246398,75.2856445 146.499816,75.2856445 C145.516906,75.2856445 144.877746,74.5605469 144.829406,73.4165039 L144.829406,73.3735352 L148.992004,73.3735352 L148.992004,73.019043 C148.992004,71.2197266 148.04132,70.1079102 146.478332,70.1079102 C144.888488,70.1079102 143.86798,71.2895508 143.86798,73.1103516 C143.86798,74.9418945 144.872375,76.1020508 146.478332,76.1020508 Z M148.019836,72.6269531 L144.829406,72.6269531 C144.89923,71.6010742 145.543762,70.9243164 146.46759,70.9243164 C147.386047,70.9243164 147.998352,71.6010742 148.019836,72.6269531 Z M152.165504,76.1020508 C153.481422,76.1020508 154.485816,75.3876953 154.485816,74.3510742 C154.485816,73.5185547 153.959449,73.0458984 152.869117,72.7827148 L151.977516,72.5678711 C151.295387,72.4013672 150.973121,72.1542969 150.973121,71.7568359 C150.973121,71.2412109 151.51023,70.8920898 152.19773,70.8920898 C152.895973,70.8920898 153.347145,71.1982422 153.47068,71.6601562 L154.383766,71.6601562 C154.26023,70.7094727 153.416969,70.1079102 152.203102,70.1079102 C150.973121,70.1079102 150.043922,70.8330078 150.043922,71.7944336 C150.043922,72.6323242 150.538063,73.0996094 151.623023,73.362793 L152.616676,73.6044922 C153.234352,73.7548828 153.535133,74.0234375 153.535133,74.4208984 C153.535133,74.9526367 152.976539,75.3232422 152.19773,75.3232422 C151.45652,75.3232422 150.994605,75.0117188 150.838844,74.5229492 L149.88816,74.5229492 C149.990211,75.484375 150.876441,76.1020508 152.165504,76.1020508 Z M157.992324,76.1020508 C159.259902,76.1020508 160.162246,75.4897461 160.430801,74.5014648 L159.506973,74.5014648 C159.265273,75.0117188 158.760391,75.2856445 158.013809,75.2856445 C157.030898,75.2856445 156.391738,74.5605469 156.343398,73.4165039 L156.343398,73.3735352 L160.505996,73.3735352 L160.505996,73.019043 C160.505996,71.2197266 159.555313,70.1079102 157.992324,70.1079102 C156.40248,70.1079102 155.381973,71.2895508 155.381973,73.1103516 C155.381973,74.9418945 156.386367,76.1020508 157.992324,76.1020508 Z M159.533828,72.6269531 L156.343398,72.6269531 C156.413223,71.6010742 157.057754,70.9243164 157.981582,70.9243164 C158.900039,70.9243164 159.512344,71.6010742 159.533828,72.6269531 Z M163.74932,76.0429688 C163.931938,76.0429688 164.109184,76.0214844 164.291801,75.9892578 L164.291801,75.2104492 C164.119926,75.2265625 164.028617,75.2319336 163.862113,75.2319336 C163.260551,75.2319336 163.002738,74.9418945 163.002738,74.2597656 L163.002738,70.9833984 L164.291801,70.9833984 L164.291801,70.2099609 L163.002738,70.2099609 L163.002738,68.7114258 L162.07891,68.7114258 L162.07891,70.2099609 L161.14434,70.2099609 L161.14434,70.9833984 L162.07891,70.9833984 L162.07891,74.4960938 C162.07891,75.6025391 162.556938,76.0429688 163.74932,76.0429688 Z M166.009734,77.9711914 L166.852996,74.9150391 L165.827117,74.9150391 L165.316863,77.9711914 L166.009734,77.9711914 Z M63.1289258,89.1020508 C64.5200391,89.1020508 65.3847852,88.3178711 65.5512891,87.2543945 L64.6167187,87.2543945 C64.4448437,87.909668 63.9023633,88.2695312 63.1235547,88.2695312 C62.0923047,88.2695312 61.4262891,87.4208984 61.4262891,86.0834961 C61.4262891,84.7729492 62.0815625,83.9404297 63.1235547,83.9404297 C63.9560742,83.9404297 64.4663281,84.4077148 64.6167187,84.9824219 L65.5512891,84.9824219 C65.3901562,83.9511719 64.5307812,83.1079102 63.1235547,83.1079102 C61.5014844,83.1079102 60.4702344,84.2788086 60.4702344,86.0834961 C60.4702344,87.9257812 61.5068555,89.1020508 63.1289258,89.1020508 Z M67.6290859,89 L67.6290859,85.5732422 C67.6290859,84.5957031 68.1984219,83.9404297 69.235043,83.9404297 C70.1105312,83.9404297 70.5724453,84.4506836 70.5724453,85.4765625 L70.5724453,89 L71.4962734,89 L71.4962734,85.2509766 C71.4962734,83.8920898 70.7228359,83.1079102 69.4982266,83.1079102 C68.6119961,83.1079102 68.0050625,83.4838867 67.7150234,84.1230469 L67.6290859,84.1230469 L67.6290859,80.9111328 L66.7052578,80.9111328 L66.7052578,89 L67.6290859,89 Z M75.2981914,89.1020508 C76.9471172,89.1020508 77.967625,87.9633789 77.967625,86.1049805 C77.967625,84.2412109 76.9471172,83.1079102 75.2981914,83.1079102 C73.6492656,83.1079102 72.6287578,84.2412109 72.6287578,86.1049805 C72.6287578,87.9633789 73.6492656,89.1020508 75.2981914,89.1020508 Z M75.2981914,88.2695312 C74.2024883,88.2695312 73.5848125,87.4746094 73.5848125,86.1049805 C73.5848125,84.7299805 74.2024883,83.9404297 75.2981914,83.9404297 C76.3938945,83.9404297 77.0115703,84.7299805 77.0115703,86.1049805 C77.0115703,87.4746094 76.3938945,88.2695312 75.2981914,88.2695312 Z M81.5332148,89.1020508 C83.1821406,89.1020508 84.2026484,87.9633789 84.2026484,86.1049805 C84.2026484,84.2412109 83.1821406,83.1079102 81.5332148,83.1079102 C79.8842891,83.1079102 78.8637812,84.2412109 78.8637812,86.1049805 C78.8637812,87.9633789 79.8842891,89.1020508 81.5332148,89.1020508 Z M81.5332148,88.2695312 C80.4375117,88.2695312 79.8198359,87.4746094 79.8198359,86.1049805 C79.8198359,84.7299805 80.4375117,83.9404297 81.5332148,83.9404297 C82.628918,83.9404297 83.2465937,84.7299805 83.2465937,86.1049805 C83.2465937,87.4746094 82.628918,88.2695312 81.5332148,88.2695312 Z M87.3761484,89.1020508 C88.6920664,89.1020508 89.6964609,88.3876953 89.6964609,87.3510742 C89.6964609,86.5185547 89.1700937,86.0458984 88.0797617,85.7827148 L87.1881602,85.5678711 C86.5060312,85.4013672 86.1837656,85.1542969 86.1837656,84.7568359 C86.1837656,84.2412109 86.720875,83.8920898 87.408375,83.8920898 C88.1066172,83.8920898 88.5577891,84.1982422 88.6813242,84.6601562 L89.5944102,84.6601562 C89.470875,83.7094727 88.6276133,83.1079102 87.4137461,83.1079102 C86.1837656,83.1079102 85.2545664,83.8330078 85.2545664,84.7944336 C85.2545664,85.6323242 85.748707,86.0996094 86.833668,86.362793 L87.8273203,86.6044922 C88.4449961,86.7548828 88.7457773,87.0234375 88.7457773,87.4208984 C88.7457773,87.9526367 88.1871836,88.3232422 87.408375,88.3232422 C86.6671641,88.3232422 86.20525,88.0117188 86.0494883,87.5229492 L85.0988047,87.5229492 C85.2008555,88.484375 86.0870859,89.1020508 87.3761484,89.1020508 Z M93.2029687,89.1020508 C94.4705469,89.1020508 95.3728906,88.4897461 95.6414453,87.5014648 L94.7176172,87.5014648 C94.475918,88.0117188 93.9710352,88.2856445 93.2244531,88.2856445 C92.241543,88.2856445 91.6023828,87.5605469 91.554043,86.4165039 L91.554043,86.3735352 L95.7166406,86.3735352 L95.7166406,86.019043 C95.7166406,84.2197266 94.765957,83.1079102 93.2029687,83.1079102 C91.613125,83.1079102 90.5926172,84.2895508 90.5926172,86.1103516 C90.5926172,87.9418945 91.5970117,89.1020508 93.2029687,89.1020508 Z M94.7444727,85.6269531 L91.554043,85.6269531 C91.6238672,84.6010742 92.2683984,83.9243164 93.1922266,83.9243164 C94.1106836,83.9243164 94.7229883,84.6010742 94.7444727,85.6269531 Z M102.654461,82.4042969 L101.703777,80.578125 L100.597332,80.578125 L101.838055,82.4042969 L102.654461,82.4042969 Z M105.742023,89.0537109 C106.128742,89.0537109 106.440266,88.7368164 106.440266,88.3554688 C106.440266,87.96875 106.128742,87.6572266 105.742023,87.6572266 C105.360676,87.6572266 105.043781,87.96875 105.043781,88.3554688 C105.043781,88.7368164 105.360676,89.0537109 105.742023,89.0537109 Z M110.086422,89.1020508 C111.354,89.1020508 112.256344,88.4897461 112.524898,87.5014648 L111.60107,87.5014648 C111.359371,88.0117188 110.854488,88.2856445 110.107906,88.2856445 C109.124996,88.2856445 108.485836,87.5605469 108.437496,86.4165039 L108.437496,86.3735352 L112.600094,86.3735352 L112.600094,86.019043 C112.600094,84.2197266 111.64941,83.1079102 110.086422,83.1079102 C108.496578,83.1079102 107.47607,84.2895508 107.47607,86.1103516 C107.47607,87.9418945 108.480465,89.1020508 110.086422,89.1020508 Z M111.627926,85.6269531 L108.437496,85.6269531 C108.50732,84.6010742 109.151852,83.9243164 110.07568,83.9243164 C110.994137,83.9243164 111.606441,84.6010742 111.627926,85.6269531 Z M114.710117,89 L114.710117,85.4121094 C114.710117,84.5957031 115.349277,84.0048828 116.230137,84.0048828 C116.412754,84.0048828 116.745762,84.0371094 116.820957,84.0585938 L116.820957,83.1347656 C116.702793,83.1186523 116.509434,83.1079102 116.359043,83.1079102 C115.590977,83.1079102 114.924961,83.5053711 114.753086,84.0693359 L114.667148,84.0693359 L114.667148,83.2099609 L113.786289,83.2099609 L113.786289,89 L114.710117,89 Z M118.742992,89 L118.742992,85.4121094 C118.742992,84.5957031 119.382152,84.0048828 120.263012,84.0048828 C120.445629,84.0048828 120.778637,84.0371094 120.853832,84.0585938 L120.853832,83.1347656 C120.735668,83.1186523 120.542309,83.1079102 120.391918,83.1079102 C119.623852,83.1079102 118.957836,83.5053711 118.785961,84.0693359 L118.700023,84.0693359 L118.700023,83.2099609 L117.819164,83.2099609 L117.819164,89 L118.742992,89 Z M123.962879,89.1020508 C125.611805,89.1020508 126.632313,87.9633789 126.632313,86.1049805 C126.632313,84.2412109 125.611805,83.1079102 123.962879,83.1079102 C122.313953,83.1079102 121.293445,84.2412109 121.293445,86.1049805 C121.293445,87.9633789 122.313953,89.1020508 123.962879,89.1020508 Z M123.962879,88.2695312 C122.867176,88.2695312 122.2495,87.4746094 122.2495,86.1049805 C122.2495,84.7299805 122.867176,83.9404297 123.962879,83.9404297 C125.058582,83.9404297 125.676258,84.7299805 125.676258,86.1049805 C125.676258,87.4746094 125.058582,88.2695312 123.962879,88.2695312 Z M128.742336,89 L128.742336,85.4121094 C128.742336,84.5957031 129.381496,84.0048828 130.262355,84.0048828 C130.444973,84.0048828 130.77798,84.0371094 130.853176,84.0585938 L130.853176,83.1347656 C130.735012,83.1186523 130.541652,83.1079102 130.391262,83.1079102 C129.623195,83.1079102 128.95718,83.5053711 128.785305,84.0693359 L128.699367,84.0693359 L128.699367,83.2099609 L127.818508,83.2099609 L127.818508,89 L128.742336,89 Z M134.655094,82.4042969 L133.70441,80.578125 L132.597965,80.578125 L133.838688,82.4042969 L134.655094,82.4042969 Z" id="Ready-useanimatedpreset,choose`.error`" fill="#000000" fill-rule="nonzero" opacity="0.300000012"></path>
                    <g id="Titles" transform="translate(69.000000, 9.000000)" fill="#000000" fill-rule="nonzero">
                        <path d="M20.8361523,12 L20.8361523,10.6225586 L16.5451367,10.6225586 L16.5451367,8.00097656 L20.6012891,8.00097656 L20.6012891,6.69970703 L16.5451367,6.69970703 L16.5451367,4.21777344 L20.8361523,4.21777344 L20.8361523,2.84033203 L14.9074414,2.84033203 L14.9074414,12 L20.8361523,12 Z M23.964582,12 L23.964582,7.96923828 C23.964582,6.99169922 24.6755195,6.35693359 25.6974922,6.35693359 C25.9640937,6.35693359 26.3830391,6.40136719 26.5036445,6.44580078 L26.5036445,5.01123047 C26.3576484,4.97314453 26.0783516,4.94775391 25.8498359,4.94775391 C24.9548164,4.94775391 24.205793,5.45556641 24.0153633,6.14111328 L23.9074531,6.14111328 L23.9074531,5.06201172 L22.3903633,5.06201172 L22.3903633,12 L23.964582,12 Z M29.1433047,12 L29.1433047,7.96923828 C29.1433047,6.99169922 29.8542422,6.35693359 30.8762148,6.35693359 C31.1428164,6.35693359 31.5617617,6.40136719 31.6823672,6.44580078 L31.6823672,5.01123047 C31.5363711,4.97314453 31.2570742,4.94775391 31.0285586,4.94775391 C30.1335391,4.94775391 29.3845156,5.45556641 29.1940859,6.14111328 L29.0861758,6.14111328 L29.0861758,5.06201172 L27.5690859,5.06201172 L27.5690859,12 L29.1433047,12 Z M35.4836484,12.1396484 C37.559332,12.1396484 38.8225156,10.78125 38.8225156,8.52783203 C38.8225156,6.28710938 37.5529844,4.92871094 35.4836484,4.92871094 C33.4206602,4.92871094 32.1447813,6.29345703 32.1447813,8.52783203 C32.1447813,10.78125 33.4016172,12.1396484 35.4836484,12.1396484 Z M35.4836484,10.8510742 C34.3855039,10.8510742 33.7570859,10.0004883 33.7570859,8.53417969 C33.7570859,7.06787109 34.3855039,6.21728516 35.4836484,6.21728516 C36.5754453,6.21728516 37.2038633,7.06787109 37.2038633,8.53417969 C37.2038633,10.0004883 36.581793,10.8510742 35.4836484,10.8510742 Z M41.6716484,12 L41.6716484,7.96923828 C41.6716484,6.99169922 42.3825859,6.35693359 43.4045586,6.35693359 C43.6711602,6.35693359 44.0901055,6.40136719 44.2107109,6.44580078 L44.2107109,5.01123047 C44.0647148,4.97314453 43.785418,4.94775391 43.5569023,4.94775391 C42.6618828,4.94775391 41.9128594,5.45556641 41.7224297,6.14111328 L41.6145195,6.14111328 L41.6145195,5.06201172 L40.0974297,5.06201172 L40.0974297,12 L41.6716484,12 Z" id="Error" opacity="0.600000024"></path>
                        <path d="M5.38471289,28 L5.38471289,20.2177734 L8.20941992,20.2177734 L8.20941992,18.840332 L0.928658203,18.840332 L0.928658203,20.2177734 L3.74701758,20.2177734 L3.74701758,28 L5.38471289,28 Z M10.2079668,28 L10.2079668,23.9692383 C10.2079668,22.9916992 10.9189043,22.3569336 11.940877,22.3569336 C12.2074785,22.3569336 12.6264238,22.4013672 12.7470293,22.4458008 L12.7470293,21.0112305 C12.6010332,20.9731445 12.3217363,20.9477539 12.0932207,20.9477539 C11.1982012,20.9477539 10.4491777,21.4555664 10.258748,22.1411133 L10.1508379,22.1411133 L10.1508379,21.0620117 L8.63374805,21.0620117 L8.63374805,28 L10.2079668,28 Z M14.5487988,30.5136719 C16.1039746,30.5136719 16.8466504,29.9487305 17.4369824,28.2412109 L19.9443066,21.0620117 L18.2812207,21.0620117 L16.6625684,26.5083008 L16.5546582,26.5083008 L14.9296582,21.0620117 L13.2030957,21.0620117 L15.6850293,28.0253906 L15.6025098,28.3491211 C15.3993848,29.0029297 15.024873,29.2568359 14.3583691,29.2568359 C14.250459,29.2568359 14.0155957,29.2504883 13.9267285,29.237793 L13.9267285,30.4882812 C14.028291,30.5073242 14.453584,30.5136719 14.5487988,30.5136719 Z M25.2807559,28 L26.0678652,25.6323242 L29.4384707,25.6323242 L30.2128848,28 L31.9711855,28 L28.7148379,18.840332 L26.8740176,18.840332 L23.6240176,28 L25.2807559,28 Z M29.0576113,24.3691406 L26.4487246,24.3691406 L27.7055605,20.5605469 L27.8134707,20.5605469 L29.0576113,24.3691406 Z M35.6709043,30.640625 C37.6958066,30.640625 38.9780332,29.6313477 38.9780332,28.0380859 L38.9780332,21.0620117 L37.4609434,21.0620117 L37.4609434,22.1728516 L37.3530332,22.1728516 C36.9721738,21.4174805 36.1469785,20.9477539 35.2011777,20.9477539 C33.4301816,20.9477539 32.3320371,22.331543 32.3320371,24.4580078 C32.3320371,26.5400391 33.423834,27.8984375 35.1757871,27.8984375 C36.1406309,27.8984375 36.896002,27.4921875 37.2959043,26.7431641 L37.4038145,26.7431641 L37.4038145,28.0634766 C37.4038145,28.9458008 36.7753965,29.4663086 35.6962949,29.4663086 C34.8330137,29.4663086 34.2744199,29.1552734 34.1728574,28.6665039 L32.592291,28.6665039 C32.7192441,29.8598633 33.8872129,30.640625 35.6709043,30.640625 Z M35.6709043,26.6479492 C34.5727598,26.6479492 33.9506895,25.7973633 33.9506895,24.4516602 C33.9506895,23.1123047 34.5727598,22.2617188 35.6709043,22.2617188 C36.7627012,22.2617188 37.4292051,23.1123047 37.4292051,24.4580078 C37.4292051,25.7973633 36.7690488,26.6479492 35.6709043,26.6479492 Z M42.5063652,28.1142578 C43.4140801,28.1142578 44.1757988,27.7207031 44.5630059,27.0478516 L44.670916,27.0478516 L44.670916,28 L46.1880059,28 L46.1880059,23.2583008 C46.1880059,21.7919922 45.1850762,20.9287109 43.4013848,20.9287109 C41.7509941,20.9287109 40.6020684,21.703125 40.4751152,22.9155273 L41.9604668,22.9155273 C42.1064629,22.4394531 42.6015801,22.1791992 43.3252129,22.1791992 C44.1757988,22.1791992 44.6328301,22.5664062 44.6328301,23.2583008 L44.6328301,23.8549805 L42.842791,23.9628906 C41.1543145,24.0581055 40.2085137,24.7880859 40.2085137,26.0322266 C40.2085137,27.3017578 41.1670098,28.1142578 42.5063652,28.1142578 Z M42.9697441,26.9018555 C42.271502,26.9018555 41.7700371,26.5527344 41.7700371,25.9560547 C41.7700371,25.378418 42.1826348,25.0546875 43.064959,24.9975586 L44.6328301,24.8896484 L44.6328301,25.4545898 C44.6328301,26.2797852 43.9218926,26.9018555 42.9697441,26.9018555 Z M48.5674121,19.9003906 C49.0879199,19.9003906 49.5132129,19.487793 49.5132129,18.9672852 C49.5132129,18.453125 49.0879199,18.0341797 48.5674121,18.0341797 C48.053252,18.0341797 47.627959,18.453125 47.627959,18.9672852 C47.627959,19.487793 48.053252,19.9003906 48.5674121,19.9003906 Z M49.3545215,28 L49.3545215,21.0620117 L47.7866504,21.0620117 L47.7866504,28 L49.3545215,28 Z M52.5654707,28 L52.5654707,23.956543 C52.5654707,22.9155273 53.1558027,22.2617188 54.0952559,22.2617188 C55.053752,22.2617188 55.4980879,22.8012695 55.4980879,23.8803711 L55.4980879,28 L57.0723066,28 L57.0723066,23.512207 C57.0723066,21.8618164 56.2280684,20.9287109 54.6792402,20.9287109 C53.6445723,20.9287109 52.9463301,21.3984375 52.616252,22.1728516 L52.5083418,22.1728516 L52.5083418,21.0620117 L50.991252,21.0620117 L50.991252,28 L52.5654707,28 Z" id="TryAgain" opacity="0.300000012"></path>
                    </g>
                    <path d="M36.2571641,32.2480469 C36.8050156,31.7001953 36.8050156,30.7763672 36.2679062,30.2392578 L31.2835312,25.265625 L36.2679062,20.28125 C36.8050156,19.7441406 36.8050156,18.8203125 36.2571641,18.2724609 C35.7093125,17.7138672 34.7854844,17.7246094 34.248375,18.2617188 L29.264,23.2353516 L24.279625,18.2509766 C23.764,17.7353516 22.8186875,17.7138672 22.2708359,18.2617188 C21.7122422,18.8095703 21.7337266,19.7548828 22.2600937,20.28125 L27.2444687,25.265625 L22.2600937,30.25 C21.7337266,30.765625 21.7122422,31.7109375 22.2708359,32.2587891 C22.8186875,32.8066406 23.764,32.7851562 24.279625,32.2695312 L29.264,27.2851562 L34.248375,32.2587891 C34.7854844,32.7958984 35.7093125,32.8066406 36.2571641,32.2480469 Z" id="icon" fill="#FF3B30" fill-rule="nonzero"></path>
                </g>
            </g>
        </g>
    </g>
</svg>