<?xml version="1.0" encoding="UTF-8"?>
<svg width="253px" height="156px" viewBox="0 0 253 156" version="1.1" xmlns="http://www.w3.org/2000/svg" xmlns:xlink="http://www.w3.org/1999/xlink">
    <title>bookmarked-preview</title>
    <defs>
        <rect id="path-1" x="0" y="0" width="157" height="59.8739496" rx="29.9369748"></rect>
        <filter x="-48.4%" y="-113.6%" width="196.8%" height="353.9%" filterUnits="objectBoundingBox" id="filter-2">
            <feOffset dx="0" dy="8" in="SourceAlpha" result="shadowOffsetOuter1"></feOffset>
            <feGaussianBlur stdDeviation="24" in="shadowOffsetOuter1" result="shadowBlurOuter1"></feGaussianBlur>
            <feColorMatrix values="0 0 0 0 0.118101482   0 0 0 0 0.118751665   0 0 0 0 0.127745697  0 0 0 0.16 0" type="matrix" in="shadowBlurOuter1"></feColorMatrix>
        </filter>
    </defs>
    <g id="Page-1" stroke="none" stroke-width="1" fill="none" fill-rule="evenodd">
        <g id="iPhone-12-Pro-Copy" transform="translate(-69.000000, -566.000000)">
            <g id="bookmarked-preview" transform="translate(117.000000, 606.000000)">
                <g id="Background">
                    <use fill="black" fill-opacity="1" filter="url(#filter-2)" xlink:href="#path-1"></use>
                    <use fill="#FFFFFF" fill-rule="evenodd" xlink:href="#path-1"></use>
                </g>
                <g id="Titles" transform="translate(33.000000, 23.000000)" fill="#000000" fill-rule="nonzero" opacity="0.600000024">
                    <path d="M4.69580825,11.5233965 C7.03990703,11.5233965 8.47072056,10.3376116 8.47072056,8.40691062 C8.47072056,6.97788783 7.45088538,5.91372193 5.97440759,5.7769006 L5.97440759,5.64007927 C7.07796058,5.46525202 7.93036013,4.44669323 7.93036013,3.29131311 C7.93036013,1.60385004 6.67459293,0.554886505 4.58925831,0.554886505 L0,0.554886505 L0,11.5233965 L4.69580825,11.5233965 Z M3.85863012,5.17640699 L1.96356326,5.17640699 L1.96356326,2.08272469 L4.10978356,2.08272469 C5.29705437,2.08272469 5.98962901,2.65281357 5.98962901,3.63336643 C5.98962901,4.63672285 5.25139011,5.17640699 3.85863012,5.17640699 Z M4.24677635,9.99555828 L1.96356326,9.99555828 L1.96356326,6.56742384 L4.17066924,6.56742384 C5.66997917,6.56742384 6.46149304,7.15271509 6.46149304,8.27008929 C6.46149304,9.39506467 5.6928113,9.99555828 4.24677635,9.99555828 Z M13.6220146,11.6906225 C16.1107169,11.6906225 17.6252482,10.0639689 17.6252482,7.36554827 C17.6252482,4.68232996 16.1031062,3.05567637 13.6220146,3.05567637 C11.1485338,3.05567637 9.61878099,4.68993115 9.61878099,7.36554827 C9.61878099,10.0639689 11.1257016,11.6906225 13.6220146,11.6906225 Z M13.6220146,10.147582 C12.3053617,10.147582 11.5519014,9.12902319 11.5519014,7.37314946 C11.5519014,5.61727572 12.3053617,4.59871693 13.6220146,4.59871693 C14.9310568,4.59871693 15.6845171,5.61727572 15.6845171,7.37314946 C15.6845171,9.12902319 14.9386675,10.147582 13.6220146,10.147582 Z M22.7460994,11.6906225 C25.2348017,11.6906225 26.749333,10.0639689 26.749333,7.36554827 C26.749333,4.68232996 25.227191,3.05567637 22.7460994,3.05567637 C20.2726186,3.05567637 18.7428658,4.68993115 18.7428658,7.36554827 C18.7428658,10.0639689 20.2497865,11.6906225 22.7460994,11.6906225 Z M22.7460994,10.147582 C21.4294465,10.147582 20.6759862,9.12902319 20.6759862,7.37314946 C20.6759862,5.61727572 21.4294465,4.59871693 22.7460994,4.59871693 C24.0551416,4.59871693 24.8086019,5.61727572 24.8086019,7.37314946 C24.8086019,9.12902319 24.0627523,10.147582 22.7460994,10.147582 Z M30.2414922,11.5233965 L30.2414922,8.60454143 L30.9112348,7.93563715 L33.5825941,11.5233965 L35.8658072,11.5233965 L32.3192162,6.78025702 L35.6374858,3.21530126 L33.4456013,3.21530126 L30.3708743,6.62063214 L30.2414922,6.62063214 L30.2414922,0 L28.3540361,0 L28.3540361,11.5233965 L30.2414922,11.5233965 Z M38.8328273,11.5233965 L38.8328273,6.46860844 C38.8328273,5.43484728 39.525402,4.65192522 40.4615194,4.65192522 C41.390026,4.65192522 41.96844,5.21441291 41.96844,6.1341563 L41.96844,11.5233965 L43.8026212,11.5233965 L43.8026212,6.33178711 C43.8026212,5.38163898 44.4495315,4.65192522 45.4313132,4.65192522 C46.4435376,4.65192522 46.9534552,5.19160936 46.9534552,6.27097763 L46.9534552,11.5233965 L48.8333007,11.5233965 L48.8333007,5.80730534 C48.8333007,4.08183635 47.8286869,3.05567637 46.1619414,3.05567637 C45.0051134,3.05567637 44.0461639,3.6485688 43.6351855,4.55310982 L43.5058035,4.55310982 C43.1557108,3.63336643 42.3565862,3.05567637 41.207369,3.05567637 C40.103816,3.05567637 39.2514164,3.61816406 38.893713,4.55310982 L38.764331,4.55310982 L38.764331,3.21530126 L36.9453712,3.21530126 L36.9453712,11.5233965 L38.8328273,11.5233965 Z M52.9875917,11.6602178 C54.0759233,11.6602178 54.9892085,11.1889443 55.4534618,10.3832187 L55.5828439,10.3832187 L55.5828439,11.5233965 L57.4018037,11.5233965 L57.4018037,5.84531127 C57.4018037,4.08943753 56.1993114,3.05567637 54.0607018,3.05567637 C52.0819172,3.05567637 50.7043786,3.98302094 50.5521644,5.43484728 L52.3330706,5.43484728 C52.5081169,4.8647584 53.1017523,4.55310982 53.9693733,4.55310982 C54.9892085,4.55310982 55.5371796,5.0167821 55.5371796,5.84531127 L55.5371796,6.55982266 L53.3909593,6.6890428 C51.3665104,6.80306058 50.2325145,7.67719686 50.2325145,9.16702912 C50.2325145,10.6872661 51.3817318,11.6602178 52.9875917,11.6602178 Z M53.5431735,10.2083915 C52.7059954,10.2083915 52.1047493,9.79032629 52.1047493,9.0758149 C52.1047493,8.38410706 52.5994455,7.99644663 53.6573342,7.92803596 L55.5371796,7.79881582 L55.5371796,8.47532128 C55.5371796,9.46347533 54.6847801,10.2083915 53.5431735,10.2083915 Z M61.1831698,11.5233965 L61.1831698,6.69664399 C61.1831698,5.5260615 62.0355694,4.765943 63.2608938,4.765943 C63.5805436,4.765943 64.0828505,4.81915129 64.227454,4.87235959 L64.227454,3.15449178 C64.0524076,3.10888467 63.7175364,3.07847993 63.4435508,3.07847993 C62.3704406,3.07847993 61.4723768,3.68657473 61.2440555,4.50750271 L61.1146734,4.50750271 L61.1146734,3.21530126 L59.2957137,3.21530126 L59.2957137,11.5233965 L61.1831698,11.5233965 Z M67.3619098,11.5233965 L67.3619098,8.60454143 L68.0316523,7.93563715 L70.7030116,11.5233965 L72.9862247,11.5233965 L69.4396337,6.78025702 L72.7579034,3.21530126 L70.5660188,3.21530126 L67.4912919,6.62063214 L67.3619098,6.62063214 L67.3619098,0 L65.4744536,0 L65.4744536,11.5233965 L67.3619098,11.5233965 Z M77.1252943,11.6906225 C79.0888575,11.6906225 80.4816175,10.7480756 80.8240995,9.25064215 L79.0355825,9.25064215 C78.761597,9.87393932 78.1146866,10.2235938 77.1785692,10.2235938 C75.9380235,10.2235938 75.1388989,9.34185637 75.0932346,7.93563715 L75.0932346,7.83682174 L80.9078173,7.83682174 L80.9078173,7.23632812 C80.9078173,4.62912167 79.4846145,3.05567637 77.1100728,3.05567637 C74.6974777,3.05567637 73.1981677,4.73553826 73.1981677,7.4035542 C73.1981677,10.0639689 74.6746455,11.6906225 77.1252943,11.6906225 Z M79.0203611,6.58262621 L75.1008453,6.58262621 C75.1845631,5.33603187 75.976077,4.52270508 77.1024621,4.52270508 C78.236458,4.52270508 78.9823076,5.3208295 79.0203611,6.58262621 Z M85.4426438,11.6602178 C86.5994718,11.6602178 87.5584213,11.1205337 88.0302853,10.2083915 L88.1596674,10.2083915 L88.1596674,11.5233965 L89.9862378,11.5233965 L89.9862378,0 L88.0987817,0 L88.0987817,4.53790745 L87.9693996,4.53790745 C87.5279784,3.62576525 86.5842503,3.07847993 85.4426438,3.07847993 C83.3420878,3.07847993 82.0178242,4.73553826 82.0178242,7.36554827 C82.0178242,10.0031595 83.334477,11.6602178 85.4426438,11.6602178 Z M86.0286685,10.0943737 C84.7348477,10.0943737 83.9509446,9.0758149 83.9509446,7.37314946 C83.9509446,5.6780852 84.7424584,4.65192522 86.0286685,4.65192522 C87.3224892,4.65192522 88.1216138,5.69328757 88.1216138,7.37314946 C88.1216138,9.06061253 87.3300999,10.0943737 86.0286685,10.0943737 Z" id="Bookmarked"></path>
                </g>
            </g>
        </g>
    </g>
</svg>