<?xml version="1.0" encoding="UTF-8"?>
<svg width="276px" height="276px" viewBox="0 0 276 276" version="1.1" xmlns="http://www.w3.org/2000/svg" xmlns:xlink="http://www.w3.org/1999/xlink">
    <title>Group 2</title>
    <defs>
        <rect id="path-1" x="0" y="0" width="196" height="50" rx="25"></rect>
        <filter x="-32.4%" y="-113.0%" width="164.8%" height="354.0%" filterUnits="objectBoundingBox" id="filter-2">
            <feOffset dx="0" dy="7" in="SourceAlpha" result="shadowOffsetOuter1"></feOffset>
            <feGaussianBlur stdDeviation="20" in="shadowOffsetOuter1" result="shadowBlurOuter1"></feGaussianBlur>
            <feColorMatrix values="0 0 0 0 0.118101482   0 0 0 0 0.118751665   0 0 0 0 0.127745697  0 0 0 0.164089816 0" type="matrix" in="shadowBlurOuter1"></feColorMatrix>
        </filter>
        <rect id="path-3" x="0" y="0" width="195" height="50" rx="25"></rect>
        <filter x="-32.6%" y="-113.0%" width="165.1%" height="354.0%" filterUnits="objectBoundingBox" id="filter-4">
            <feOffset dx="0" dy="7" in="SourceAlpha" result="shadowOffsetOuter1"></feOffset>
            <feGaussianBlur stdDeviation="20" in="shadowOffsetOuter1" result="shadowBlurOuter1"></feGaussianBlur>
            <feColorMatrix values="0 0 0 0 0.118101482   0 0 0 0 0.118751665   0 0 0 0 0.127745697  0 0 0 0.169607736 0" type="matrix" in="shadowBlurOuter1"></feColorMatrix>
        </filter>
        <rect id="path-5" x="0" y="0" width="196" height="50" rx="25"></rect>
        <filter x="-32.4%" y="-113.0%" width="164.8%" height="354.0%" filterUnits="objectBoundingBox" id="filter-6">
            <feOffset dx="0" dy="7" in="SourceAlpha" result="shadowOffsetOuter1"></feOffset>
            <feGaussianBlur stdDeviation="20" in="shadowOffsetOuter1" result="shadowBlurOuter1"></feGaussianBlur>
            <feColorMatrix values="0 0 0 0 0.118101482   0 0 0 0 0.118751665   0 0 0 0 0.127745697  0 0 0 0.16 0" type="matrix" in="shadowBlurOuter1"></feColorMatrix>
        </filter>
    </defs>
    <g id="Page-1" stroke="none" stroke-width="1" fill="none" fill-rule="evenodd">
        <g id="Artboard-Copy" transform="translate(-98.000000, -439.000000)">
            <g id="Group-2" transform="translate(138.000000, 472.000000)">
                <g id="error-preview" transform="translate(0.000000, 73.000000)">
                    <g id="Background">
                        <use fill="black" fill-opacity="1" filter="url(#filter-2)" xlink:href="#path-1"></use>
                        <use fill="#FFFFFF" fill-rule="evenodd" xlink:href="#path-1"></use>
                    </g>
                    <g id="Titles" transform="translate(69.000000, 9.000000)" fill="#000000" fill-rule="nonzero">
                        <path d="M20.8361523,12 L20.8361523,10.6225586 L16.5451367,10.6225586 L16.5451367,8.00097656 L20.6012891,8.00097656 L20.6012891,6.69970703 L16.5451367,6.69970703 L16.5451367,4.21777344 L20.8361523,4.21777344 L20.8361523,2.84033203 L14.9074414,2.84033203 L14.9074414,12 L20.8361523,12 Z M23.964582,12 L23.964582,7.96923828 C23.964582,6.99169922 24.6755195,6.35693359 25.6974922,6.35693359 C25.9640938,6.35693359 26.3830391,6.40136719 26.5036445,6.44580078 L26.5036445,5.01123047 C26.3576484,4.97314453 26.0783516,4.94775391 25.8498359,4.94775391 C24.9548164,4.94775391 24.205793,5.45556641 24.0153633,6.14111328 L23.9074531,6.14111328 L23.9074531,5.06201172 L22.3903633,5.06201172 L22.3903633,12 L23.964582,12 Z M29.1433047,12 L29.1433047,7.96923828 C29.1433047,6.99169922 29.8542422,6.35693359 30.8762148,6.35693359 C31.1428164,6.35693359 31.5617617,6.40136719 31.6823672,6.44580078 L31.6823672,5.01123047 C31.5363711,4.97314453 31.2570742,4.94775391 31.0285586,4.94775391 C30.1335391,4.94775391 29.3845156,5.45556641 29.1940859,6.14111328 L29.0861758,6.14111328 L29.0861758,5.06201172 L27.5690859,5.06201172 L27.5690859,12 L29.1433047,12 Z M35.4836484,12.1396484 C37.559332,12.1396484 38.8225156,10.78125 38.8225156,8.52783203 C38.8225156,6.28710938 37.5529844,4.92871094 35.4836484,4.92871094 C33.4206602,4.92871094 32.1447813,6.29345703 32.1447813,8.52783203 C32.1447813,10.78125 33.4016172,12.1396484 35.4836484,12.1396484 Z M35.4836484,10.8510742 C34.3855039,10.8510742 33.7570859,10.0004883 33.7570859,8.53417969 C33.7570859,7.06787109 34.3855039,6.21728516 35.4836484,6.21728516 C36.5754453,6.21728516 37.2038633,7.06787109 37.2038633,8.53417969 C37.2038633,10.0004883 36.581793,10.8510742 35.4836484,10.8510742 Z M41.6716484,12 L41.6716484,7.96923828 C41.6716484,6.99169922 42.3825859,6.35693359 43.4045586,6.35693359 C43.6711602,6.35693359 44.0901055,6.40136719 44.2107109,6.44580078 L44.2107109,5.01123047 C44.0647148,4.97314453 43.785418,4.94775391 43.5569023,4.94775391 C42.6618828,4.94775391 41.9128594,5.45556641 41.7224297,6.14111328 L41.6145195,6.14111328 L41.6145195,5.06201172 L40.0974297,5.06201172 L40.0974297,12 L41.6716484,12 Z" id="Error" opacity="0.600000024"></path>
                        <path d="M5.38471289,28 L5.38471289,20.2177734 L8.20941992,20.2177734 L8.20941992,18.840332 L0.928658203,18.840332 L0.928658203,20.2177734 L3.74701758,20.2177734 L3.74701758,28 L5.38471289,28 Z M10.2079668,28 L10.2079668,23.9692383 C10.2079668,22.9916992 10.9189043,22.3569336 11.940877,22.3569336 C12.2074785,22.3569336 12.6264238,22.4013672 12.7470293,22.4458008 L12.7470293,21.0112305 C12.6010332,20.9731445 12.3217363,20.9477539 12.0932207,20.9477539 C11.1982012,20.9477539 10.4491777,21.4555664 10.258748,22.1411133 L10.1508379,22.1411133 L10.1508379,21.0620117 L8.63374805,21.0620117 L8.63374805,28 L10.2079668,28 Z M14.5487988,30.5136719 C16.1039746,30.5136719 16.8466504,29.9487305 17.4369824,28.2412109 L19.9443066,21.0620117 L18.2812207,21.0620117 L16.6625684,26.5083008 L16.5546582,26.5083008 L14.9296582,21.0620117 L13.2030957,21.0620117 L15.6850293,28.0253906 L15.6025098,28.3491211 C15.3993848,29.0029297 15.024873,29.2568359 14.3583691,29.2568359 C14.250459,29.2568359 14.0155957,29.2504883 13.9267285,29.237793 L13.9267285,30.4882812 C14.028291,30.5073242 14.453584,30.5136719 14.5487988,30.5136719 Z M25.2807559,28 L26.0678652,25.6323242 L29.4384707,25.6323242 L30.2128848,28 L31.9711855,28 L28.7148379,18.840332 L26.8740176,18.840332 L23.6240176,28 L25.2807559,28 Z M29.0576113,24.3691406 L26.4487246,24.3691406 L27.7055605,20.5605469 L27.8134707,20.5605469 L29.0576113,24.3691406 Z M35.6709043,30.640625 C37.6958066,30.640625 38.9780332,29.6313477 38.9780332,28.0380859 L38.9780332,21.0620117 L37.4609434,21.0620117 L37.4609434,22.1728516 L37.3530332,22.1728516 C36.9721738,21.4174805 36.1469785,20.9477539 35.2011777,20.9477539 C33.4301816,20.9477539 32.3320371,22.331543 32.3320371,24.4580078 C32.3320371,26.5400391 33.423834,27.8984375 35.1757871,27.8984375 C36.1406309,27.8984375 36.896002,27.4921875 37.2959043,26.7431641 L37.4038145,26.7431641 L37.4038145,28.0634766 C37.4038145,28.9458008 36.7753965,29.4663086 35.6962949,29.4663086 C34.8330137,29.4663086 34.2744199,29.1552734 34.1728574,28.6665039 L32.592291,28.6665039 C32.7192441,29.8598633 33.8872129,30.640625 35.6709043,30.640625 Z M35.6709043,26.6479492 C34.5727598,26.6479492 33.9506895,25.7973633 33.9506895,24.4516602 C33.9506895,23.1123047 34.5727598,22.2617188 35.6709043,22.2617188 C36.7627012,22.2617188 37.4292051,23.1123047 37.4292051,24.4580078 C37.4292051,25.7973633 36.7690488,26.6479492 35.6709043,26.6479492 Z M42.5063652,28.1142578 C43.4140801,28.1142578 44.1757988,27.7207031 44.5630059,27.0478516 L44.670916,27.0478516 L44.670916,28 L46.1880059,28 L46.1880059,23.2583008 C46.1880059,21.7919922 45.1850762,20.9287109 43.4013848,20.9287109 C41.7509941,20.9287109 40.6020684,21.703125 40.4751152,22.9155273 L41.9604668,22.9155273 C42.1064629,22.4394531 42.6015801,22.1791992 43.3252129,22.1791992 C44.1757988,22.1791992 44.6328301,22.5664062 44.6328301,23.2583008 L44.6328301,23.8549805 L42.842791,23.9628906 C41.1543145,24.0581055 40.2085137,24.7880859 40.2085137,26.0322266 C40.2085137,27.3017578 41.1670098,28.1142578 42.5063652,28.1142578 Z M42.9697441,26.9018555 C42.271502,26.9018555 41.7700371,26.5527344 41.7700371,25.9560547 C41.7700371,25.378418 42.1826348,25.0546875 43.064959,24.9975586 L44.6328301,24.8896484 L44.6328301,25.4545898 C44.6328301,26.2797852 43.9218926,26.9018555 42.9697441,26.9018555 Z M48.5674121,19.9003906 C49.0879199,19.9003906 49.5132129,19.487793 49.5132129,18.9672852 C49.5132129,18.453125 49.0879199,18.0341797 48.5674121,18.0341797 C48.053252,18.0341797 47.627959,18.453125 47.627959,18.9672852 C47.627959,19.487793 48.053252,19.9003906 48.5674121,19.9003906 Z M49.3545215,28 L49.3545215,21.0620117 L47.7866504,21.0620117 L47.7866504,28 L49.3545215,28 Z M52.5654707,28 L52.5654707,23.956543 C52.5654707,22.9155273 53.1558027,22.2617188 54.0952559,22.2617188 C55.053752,22.2617188 55.4980879,22.8012695 55.4980879,23.8803711 L55.4980879,28 L57.0723066,28 L57.0723066,23.512207 C57.0723066,21.8618164 56.2280684,20.9287109 54.6792402,20.9287109 C53.6445723,20.9287109 52.9463301,21.3984375 52.616252,22.1728516 L52.5083418,22.1728516 L52.5083418,21.0620117 L50.991252,21.0620117 L50.991252,28 L52.5654707,28 Z" id="TryAgain" opacity="0.300000012"></path>
                    </g>
                    <path d="M36.2571641,32.2480469 C36.8050156,31.7001953 36.8050156,30.7763672 36.2679062,30.2392578 L31.2835312,25.265625 L36.2679062,20.28125 C36.8050156,19.7441406 36.8050156,18.8203125 36.2571641,18.2724609 C35.7093125,17.7138672 34.7854844,17.7246094 34.248375,18.2617188 L29.264,23.2353516 L24.279625,18.2509766 C23.764,17.7353516 22.8186875,17.7138672 22.2708359,18.2617188 C21.7122422,18.8095703 21.7337266,19.7548828 22.2600937,20.28125 L27.2444687,25.265625 L22.2600937,30.25 C21.7337266,30.765625 21.7122422,31.7109375 22.2708359,32.2587891 C22.8186875,32.8066406 23.764,32.7851562 24.279625,32.2695312 L29.264,27.2851562 L34.248375,32.2587891 C34.7854844,32.7958984 35.7093125,32.8066406 36.2571641,32.2480469 Z" id="icon" fill="#FF3B30" fill-rule="nonzero"></path>
                </g>
                <g id="done-preview">
                    <g id="Background">
                        <use fill="black" fill-opacity="1" filter="url(#filter-4)" xlink:href="#path-3"></use>
                        <use fill="#FFFFFF" fill-rule="evenodd" xlink:href="#path-3"></use>
                    </g>
                    <g id="Titles" transform="translate(66.529488, 11.840332)" fill="#000000" fill-rule="nonzero">
                        <path d="M20.0815723,9.15966797 C22.8237598,9.15966797 24.3916309,7.47753906 24.3916309,4.53857422 C24.3916309,1.66308594 22.8047168,0 20.0815723,0 L16.6474902,0 L16.6474902,9.15966797 L20.0815723,9.15966797 Z M19.865752,7.78222656 L18.2851855,7.78222656 L18.2851855,1.37744141 L19.865752,1.37744141 C21.6621387,1.37744141 22.7221973,2.54541016 22.7221973,4.56396484 C22.7221973,6.62695312 21.6875293,7.78222656 19.865752,7.78222656 Z M28.7832441,9.29931641 C30.8589277,9.29931641 32.1221113,7.94091797 32.1221113,5.6875 C32.1221113,3.44677734 30.8525801,2.08837891 28.7832441,2.08837891 C26.7202559,2.08837891 25.444377,3.453125 25.444377,5.6875 C25.444377,7.94091797 26.7012129,9.29931641 28.7832441,9.29931641 Z M28.7832441,8.01074219 C27.6850996,8.01074219 27.0566816,7.16015625 27.0566816,5.69384766 C27.0566816,4.22753906 27.6850996,3.37695312 28.7832441,3.37695312 C29.875041,3.37695312 30.503459,4.22753906 30.503459,5.69384766 C30.503459,7.16015625 29.8813887,8.01074219 28.7832441,8.01074219 Z M34.9712441,9.15966797 L34.9712441,5.11621094 C34.9712441,4.07519531 35.5615762,3.42138672 36.5010293,3.42138672 C37.4595254,3.42138672 37.9038613,3.9609375 37.9038613,5.04003906 L37.9038613,9.15966797 L39.4780801,9.15966797 L39.4780801,4.671875 C39.4780801,3.02148438 38.6338418,2.08837891 37.0850137,2.08837891 C36.0503457,2.08837891 35.3521035,2.55810547 35.0220254,3.33251953 L34.9141152,3.33251953 L34.9141152,2.22167969 L33.3970254,2.22167969 L33.3970254,9.15966797 L34.9712441,9.15966797 Z M43.9649082,9.29931641 C45.6026035,9.29931641 46.7642246,8.51220703 47.0498691,7.26171875 L45.5581699,7.26171875 C45.3296543,7.78222656 44.7901035,8.07421875 44.0093418,8.07421875 C42.9746738,8.07421875 42.3081699,7.33789062 42.270084,6.16357422 L42.270084,6.08105469 L47.1196934,6.08105469 L47.1196934,5.57958984 C47.1196934,3.40234375 45.9326816,2.08837891 43.9522129,2.08837891 C41.9400059,2.08837891 40.6895176,3.49121094 40.6895176,5.71923828 C40.6895176,7.94091797 41.9209629,9.29931641 43.9649082,9.29931641 Z M45.5454746,5.03369141 L42.2764316,5.03369141 C42.3462559,3.99267578 43.0064121,3.31347656 43.9458652,3.31347656 C44.891666,3.31347656 45.5137363,3.97998047 45.5454746,5.03369141 Z" id="Done" opacity="0.600000024"></path>
                        <path d="M4.20849609,25.3881836 C6.32226562,25.3881836 7.87109375,24.1376953 8.08691406,22.2841797 L6.47460938,22.2841797 C6.25244141,23.3125 5.37011719,23.9663086 4.20849609,23.9663086 C2.64697266,23.9663086 1.67578125,22.6650391 1.67578125,20.5766602 C1.67578125,18.4946289 2.64697266,17.1933594 4.20214844,17.1933594 C5.35742188,17.1933594 6.23974609,17.9106445 6.46826172,19.0151367 L8.08056641,19.0151367 C7.89013672,17.1171875 6.28417969,15.7714844 4.20214844,15.7714844 C1.60595703,15.7714844 0,17.605957 0,20.5830078 C0,23.5473633 1.61230469,25.3881836 4.20849609,25.3881836 Z M12.4213984,25.2993164 C14.497082,25.2993164 15.7602656,23.940918 15.7602656,21.6875 C15.7602656,19.4467773 14.4907344,18.0883789 12.4213984,18.0883789 C10.3584102,18.0883789 9.08253125,19.453125 9.08253125,21.6875 C9.08253125,23.940918 10.3393672,25.2993164 12.4213984,25.2993164 Z M12.4213984,24.0107422 C11.3232539,24.0107422 10.6948359,23.1601562 10.6948359,21.6938477 C10.6948359,20.2275391 11.3232539,19.3769531 12.4213984,19.3769531 C13.5131953,19.3769531 14.1416133,20.2275391 14.1416133,21.6938477 C14.1416133,23.1601562 13.519543,24.0107422 12.4213984,24.0107422 Z M18.6093984,25.159668 L18.6093984,21.1162109 C18.6093984,20.0751953 19.1997305,19.4213867 20.1391836,19.4213867 C21.0976797,19.4213867 21.5420156,19.9609375 21.5420156,21.0400391 L21.5420156,25.159668 L23.1162344,25.159668 L23.1162344,20.671875 C23.1162344,19.0214844 22.2719961,18.0883789 20.723168,18.0883789 C19.6885,18.0883789 18.9902578,18.5581055 18.6601797,19.3325195 L18.5522695,19.3325195 L18.5522695,18.2216797 L17.0351797,18.2216797 L17.0351797,25.159668 L18.6093984,25.159668 Z M26.7461289,25.159668 L26.7461289,19.4912109 L28.2378281,19.4912109 L28.2378281,18.2661133 L26.7270859,18.2661133 L26.7270859,17.625 C26.7270859,16.9648438 27.0190781,16.6347656 27.7617539,16.6347656 C27.9839219,16.6347656 28.1743516,16.6538086 28.3013047,16.6728516 L28.3013047,15.5366211 C28.0473984,15.4921875 27.7617539,15.4731445 27.4253281,15.4731445 C25.8828477,15.4731445 25.1782578,16.1523438 25.1782578,17.5361328 L25.1782578,18.2661133 L24.0420273,18.2661133 L24.0420273,19.4912109 L25.1782578,19.4912109 L25.1782578,25.159668 L26.7461289,25.159668 Z M30.2427227,17.0600586 C30.7632305,17.0600586 31.1885234,16.6474609 31.1885234,16.1269531 C31.1885234,15.612793 30.7632305,15.1938477 30.2427227,15.1938477 C29.7285625,15.1938477 29.3032695,15.612793 29.3032695,16.1269531 C29.3032695,16.6474609 29.7285625,17.0600586 30.2427227,17.0600586 Z M31.029832,25.159668 L31.029832,18.2216797 L29.4619609,18.2216797 L29.4619609,25.159668 L31.029832,25.159668 Z M34.2407812,25.159668 L34.2407812,21.1289062 C34.2407812,20.1513672 34.9517187,19.5166016 35.9736914,19.5166016 C36.240293,19.5166016 36.6592383,19.5610352 36.7798437,19.6054688 L36.7798437,18.1708984 C36.6338477,18.1328125 36.3545508,18.1074219 36.1260352,18.1074219 C35.2310156,18.1074219 34.4819922,18.6152344 34.2915625,19.3007812 L34.1836523,19.3007812 L34.1836523,18.2216797 L32.6665625,18.2216797 L32.6665625,25.159668 L34.2407812,25.159668 Z M39.4195039,25.159668 L39.4195039,20.9384766 C39.4195039,20.0751953 39.9971406,19.4213867 40.7779023,19.4213867 C41.5523164,19.4213867 42.0347383,19.8911133 42.0347383,20.6591797 L42.0347383,25.159668 L43.5645234,25.159668 L43.5645234,20.8242188 C43.5645234,20.0307617 44.1040742,19.4213867 44.9229219,19.4213867 C45.7671602,19.4213867 46.1924531,19.8720703 46.1924531,20.7734375 L46.1924531,25.159668 L47.7603242,25.159668 L47.7603242,20.3862305 C47.7603242,18.9453125 46.9224336,18.0883789 45.5322969,18.0883789 C44.5674531,18.0883789 43.7676484,18.5834961 43.424875,19.3388672 L43.3169648,19.3388672 C43.0249727,18.5708008 42.3584688,18.0883789 41.3999727,18.0883789 C40.4795625,18.0883789 39.768625,18.5581055 39.4702852,19.3388672 L39.362375,19.3388672 L39.362375,18.2216797 L37.8452852,18.2216797 L37.8452852,25.159668 L39.4195039,25.159668 Z M52.2471523,25.2993164 C53.8848477,25.2993164 55.0464688,24.512207 55.3321133,23.2617188 L53.8404141,23.2617188 C53.6118984,23.7822266 53.0723477,24.0742188 52.2915859,24.0742188 C51.256918,24.0742188 50.5904141,23.3378906 50.5523281,22.1635742 L50.5523281,22.0810547 L55.4019375,22.0810547 L55.4019375,21.5795898 C55.4019375,19.4023438 54.2149258,18.0883789 52.234457,18.0883789 C50.22225,18.0883789 48.9717617,19.4912109 48.9717617,21.7192383 C48.9717617,23.940918 50.203207,25.2993164 52.2471523,25.2993164 Z M53.8277188,21.0336914 L50.5586758,21.0336914 C50.6285,19.9926758 51.2886563,19.3134766 52.2281094,19.3134766 C53.1739102,19.3134766 53.7959805,19.9799805 53.8277188,21.0336914 Z M59.1841758,25.2739258 C60.1490195,25.2739258 60.9488242,24.8232422 61.3423789,24.0615234 L61.4502891,24.0615234 L61.4502891,25.159668 L62.9737266,25.159668 L62.9737266,15.5366211 L61.3995078,15.5366211 L61.3995078,19.3261719 L61.2915977,19.3261719 C60.9234336,18.5644531 60.1363242,18.1074219 59.1841758,18.1074219 C57.4322227,18.1074219 56.3277305,19.4912109 56.3277305,21.6875 C56.3277305,23.8901367 57.425875,25.2739258 59.1841758,25.2739258 Z M59.6729453,23.9663086 C58.5938438,23.9663086 57.9400352,23.1157227 57.9400352,21.6938477 C57.9400352,20.2783203 58.6001914,19.4213867 59.6729453,19.4213867 C60.7520469,19.4213867 61.4185508,20.2910156 61.4185508,21.6938477 C61.4185508,23.1030273 60.7583945,23.9663086 59.6729453,23.9663086 Z" id="Confirmed" opacity="0.300000012"></path>
                    </g>
                    <path d="M29.264,36.4804688 C35.4192734,36.4804688 40.4895859,31.4101562 40.4895859,25.2548828 C40.4895859,19.0996094 35.4085312,14.0185547 29.2532578,14.0185547 C23.0979844,14.0185547 18.0384141,19.0996094 18.0384141,25.2548828 C18.0384141,31.4101562 23.1087266,36.4804688 29.264,36.4804688 Z M27.8138047,30.9482422 C27.3626328,30.9482422 27.0081406,30.7441406 26.6966172,30.3681641 L23.6028672,26.6513672 C23.3880234,26.3935547 23.2806016,26.1142578 23.2806016,25.8242188 C23.2806016,25.2011719 23.7854844,24.7177734 24.3870469,24.7177734 C24.7522812,24.7177734 25.0423203,24.8681641 25.3216172,25.2011719 L27.7815781,28.2519531 L32.5081406,20.7109375 C32.7766953,20.2919922 33.0989609,20.0878906 33.4856797,20.0878906 C34.0765,20.0878906 34.6243516,20.5068359 34.6243516,21.1298828 C34.6243516,21.3876953 34.5061875,21.6777344 34.3450547,21.9355469 L28.8880234,30.3359375 C28.6302109,30.7333984 28.2434922,30.9482422 27.8138047,30.9482422 Z" id="icon" fill="#007AFF" fill-rule="nonzero"></path>
                </g>
                <g id="bookmarked-preview" transform="translate(0.000000, 146.000000)">
                    <g id="Background">
                        <use fill="black" fill-opacity="1" filter="url(#filter-6)" xlink:href="#path-5"></use>
                        <use fill="#FFFFFF" fill-rule="evenodd" xlink:href="#path-5"></use>
                    </g>
                    <g id="Titles" transform="translate(59.500000, 17.000000)" fill="#000000" fill-rule="nonzero" opacity="0.600000024">
                        <path d="M5.1002832,12 C7.05536133,12 8.2487207,11.0097656 8.2487207,9.39746094 C8.2487207,8.20410156 7.39813477,7.31542969 6.16668945,7.20117188 L6.16668945,7.08691406 C7.08709961,6.94091797 7.79803711,6.09033203 7.79803711,5.12548828 C7.79803711,3.71630859 6.75067383,2.84033203 5.01141602,2.84033203 L1.1837793,2.84033203 L1.1837793,12 L5.1002832,12 Z M4.40204102,6.69970703 L2.82147461,6.69970703 L2.82147461,4.11621094 L4.61151367,4.11621094 C5.60174805,4.11621094 6.17938477,4.59228516 6.17938477,5.41113281 C6.17938477,6.24902344 5.56366211,6.69970703 4.40204102,6.69970703 Z M4.72577148,10.7241211 L2.82147461,10.7241211 L2.82147461,7.86132812 L4.66229492,7.86132812 C5.9127832,7.86132812 6.57293945,8.35009766 6.57293945,9.28320312 C6.57293945,10.2226562 5.93182617,10.7241211 4.72577148,10.7241211 Z M12.5451191,12.1396484 C14.6208027,12.1396484 15.8839863,10.78125 15.8839863,8.52783203 C15.8839863,6.28710938 14.6144551,4.92871094 12.5451191,4.92871094 C10.4821309,4.92871094 9.20625195,6.29345703 9.20625195,8.52783203 C9.20625195,10.78125 10.4630879,12.1396484 12.5451191,12.1396484 Z M12.5451191,10.8510742 C11.4469746,10.8510742 10.8185566,10.0004883 10.8185566,8.53417969 C10.8185566,7.06787109 11.4469746,6.21728516 12.5451191,6.21728516 C13.636916,6.21728516 14.265334,7.06787109 14.265334,8.53417969 C14.265334,10.0004883 13.6432637,10.8510742 12.5451191,10.8510742 Z M20.1549941,12.1396484 C22.2306777,12.1396484 23.4938613,10.78125 23.4938613,8.52783203 C23.4938613,6.28710938 22.2243301,4.92871094 20.1549941,4.92871094 C18.0920059,4.92871094 16.816127,6.29345703 16.816127,8.52783203 C16.816127,10.78125 18.0729629,12.1396484 20.1549941,12.1396484 Z M20.1549941,10.8510742 C19.0568496,10.8510742 18.4284316,10.0004883 18.4284316,8.53417969 C18.4284316,7.06787109 19.0568496,6.21728516 20.1549941,6.21728516 C21.246791,6.21728516 21.875209,7.06787109 21.875209,8.53417969 C21.875209,10.0004883 21.2531387,10.8510742 20.1549941,10.8510742 Z M26.4064707,12 L26.4064707,9.5625 L26.9650645,9.00390625 L29.1930918,12 L31.0973887,12 L28.1393809,8.0390625 L30.906959,5.06201172 L29.078834,5.06201172 L26.5143809,7.90576172 L26.4064707,7.90576172 L26.4064707,2.37695312 L24.832252,2.37695312 L24.832252,12 L26.4064707,12 Z M33.5720098,12 L33.5720098,7.77880859 C33.5720098,6.91552734 34.1496465,6.26171875 34.9304082,6.26171875 C35.7048223,6.26171875 36.1872441,6.73144531 36.1872441,7.49951172 L36.1872441,12 L37.7170293,12 L37.7170293,7.66455078 C37.7170293,6.87109375 38.2565801,6.26171875 39.0754277,6.26171875 C39.919666,6.26171875 40.344959,6.71240234 40.344959,7.61376953 L40.344959,12 L41.9128301,12 L41.9128301,7.2265625 C41.9128301,5.78564453 41.0749395,4.92871094 39.6848027,4.92871094 C38.719959,4.92871094 37.9201543,5.42382812 37.5773809,6.17919922 L37.4694707,6.17919922 C37.1774785,5.41113281 36.5109746,4.92871094 35.5524785,4.92871094 C34.6320684,4.92871094 33.9211309,5.3984375 33.622791,6.17919922 L33.5148809,6.17919922 L33.5148809,5.06201172 L31.997791,5.06201172 L31.997791,12 L33.5720098,12 Z M45.3776855,12.1142578 C46.2854004,12.1142578 47.0471191,11.7207031 47.4343262,11.0478516 L47.5422363,11.0478516 L47.5422363,12 L49.0593262,12 L49.0593262,7.25830078 C49.0593262,5.79199219 48.0563965,4.92871094 46.2727051,4.92871094 C44.6223145,4.92871094 43.4733887,5.703125 43.3464355,6.91552734 L44.8317871,6.91552734 C44.9777832,6.43945312 45.4729004,6.17919922 46.1965332,6.17919922 C47.0471191,6.17919922 47.5041504,6.56640625 47.5041504,7.25830078 L47.5041504,7.85498047 L45.7141113,7.96289062 C44.0256348,8.05810547 43.079834,8.78808594 43.079834,10.0322266 C43.079834,11.3017578 44.0383301,12.1142578 45.3776855,12.1142578 Z M45.8410645,10.9018555 C45.1428223,10.9018555 44.6413574,10.5527344 44.6413574,9.95605469 C44.6413574,9.37841797 45.0539551,9.0546875 45.9362793,8.99755859 L47.5041504,8.88964844 L47.5041504,9.45458984 C47.5041504,10.2797852 46.7932129,10.9018555 45.8410645,10.9018555 Z M52.2131465,12 L52.2131465,7.96923828 C52.2131465,6.99169922 52.924084,6.35693359 53.9460566,6.35693359 C54.2126582,6.35693359 54.6316035,6.40136719 54.752209,6.44580078 L54.752209,5.01123047 C54.6062129,4.97314453 54.326916,4.94775391 54.0984004,4.94775391 C53.2033809,4.94775391 52.4543574,5.45556641 52.2639277,6.14111328 L52.1560176,6.14111328 L52.1560176,5.06201172 L50.6389277,5.06201172 L50.6389277,12 L52.2131465,12 Z M57.3664785,12 L57.3664785,9.5625 L57.9250723,9.00390625 L60.1530996,12 L62.0573965,12 L59.0993887,8.0390625 L61.8669668,5.06201172 L60.0388418,5.06201172 L57.4743887,7.90576172 L57.3664785,7.90576172 L57.3664785,2.37695312 L55.7922598,2.37695312 L55.7922598,12 L57.3664785,12 Z M65.5095566,12.1396484 C67.147252,12.1396484 68.308873,11.3525391 68.5945176,10.1020508 L67.1028184,10.1020508 C66.8743027,10.6225586 66.334752,10.9145508 65.5539902,10.9145508 C64.5193223,10.9145508 63.8528184,10.1782227 63.8147324,9.00390625 L63.8147324,8.92138672 L68.6643418,8.92138672 L68.6643418,8.41992188 C68.6643418,6.24267578 67.4773301,4.92871094 65.4968613,4.92871094 C63.4846543,4.92871094 62.234166,6.33154297 62.234166,8.55957031 C62.234166,10.78125 63.4656113,12.1396484 65.5095566,12.1396484 Z M67.090123,7.87402344 L63.8210801,7.87402344 C63.8909043,6.83300781 64.5510605,6.15380859 65.4905137,6.15380859 C66.4363145,6.15380859 67.0583848,6.8203125 67.090123,7.87402344 Z M72.4465801,12.1142578 C73.4114238,12.1142578 74.2112285,11.6635742 74.6047832,10.9018555 L74.7126934,10.9018555 L74.7126934,12 L76.2361309,12 L76.2361309,2.37695312 L74.6619121,2.37695312 L74.6619121,6.16650391 L74.554002,6.16650391 C74.1858379,5.40478516 73.3987285,4.94775391 72.4465801,4.94775391 C70.694627,4.94775391 69.5901348,6.33154297 69.5901348,8.52783203 C69.5901348,10.7304688 70.6882793,12.1142578 72.4465801,12.1142578 Z M72.9353496,10.8066406 C71.856248,10.8066406 71.2024395,9.95605469 71.2024395,8.53417969 C71.2024395,7.11865234 71.8625957,6.26171875 72.9353496,6.26171875 C74.0144512,6.26171875 74.6809551,7.13134766 74.6809551,8.53417969 C74.6809551,9.94335938 74.0207988,10.8066406 72.9353496,10.8066406 Z" id="Bookmarked"></path>
                    </g>
                    <path d="M34.7945762,34.2373047 C35.5001426,34.2373047 36.0728965,33.7973633 36.0728965,32.8261719 L36.0728965,18.6318359 C36.0728965,16.7890625 35.1017051,15.7929688 33.2672324,15.7929688 L25.1407676,15.7929688 C23.3062949,15.7929688 22.3268027,16.7890625 22.3268027,18.6318359 L22.3268027,32.8261719 C22.3268027,33.7973633 22.9078574,34.2373047 23.605123,34.2373047 C24.1197715,34.2373047 24.4352012,33.9716797 25.1905723,33.2744141 L28.8263145,29.8295898 C28.9923301,29.671875 29.1002402,29.6303711 29.1998496,29.6303711 C29.3077598,29.6303711 29.4156699,29.671875 29.5816855,29.8295898 L33.5577598,33.6064453 C33.9561973,33.9799805 34.2799277,34.2373047 34.7945762,34.2373047 Z" id="icon" fill="#FF9500" fill-rule="nonzero"></path>
                </g>
            </g>
        </g>
    </g>
</svg>